<svg xmlns="http://www.w3.org/2000/svg" width="840" height="840"><path fill="#a9e8f2" fill-rule="evenodd" d="M399 28.919c1.151.806.452 1.081-3 1.184-2.475.073-5.837.42-7.47.77s9.927.634 25.69.632c31.569-.005 35.118-1.256 5.878-2.072-10.229-.285-19.498-.754-20.598-1.041-1.626-.425-1.719-.327-.5.527m-34.412 3.827c-.411.41-3.973 1.096-7.917 1.524-16.369 1.777-19.143 2.248-17.918 3.041.69.446 5.64.083 11-.807s14.697-2.212 20.747-2.939l11-1.321-8.083-.122c-4.446-.067-8.419.214-8.829.624m83.495-.366c.23.208 4.409.703 9.288 1.099 6.358.517 8.678.409 8.191-.379-.409-.662-4.107-1.1-9.288-1.1-4.734 0-8.42.171-8.191.38M480 36.518c7.425 1.278 18.18 3.484 23.899 4.903 11.627 2.883 12.479 3 11.601 1.579-.34-.55-1.604-1.011-2.809-1.025-1.205-.013-4.848-.913-8.096-2S496.959 38 494.845 38c-2.115 0-3.845-.45-3.845-1s-2.475-1-5.5-1-5.5-.45-5.5-1c0-.578-2.852-.959-6.75-.903-6.572.095-6.394.159 6.75 2.421m-147.5 1.284c-2.2.182-4.428.752-4.95 1.265S325.43 40 324 40s-3.028.404-3.55.898c-.522.493-2.75 1.143-4.95 1.443-7.88 1.075-11.012 1.949-11.8 3.294-.44.751-1.527 1.365-2.416 1.365-.89 0-1.366.252-1.058.559.856.856 11.774-2.565 11.774-3.689 0-.543.452-.709 1.005-.367s5.165-.355 10.25-1.548l12.214-2.868c3.908-.919 2.093-1.704-2.969-1.285m185.094 6.046c-.291.47 1.369 1.401 3.689 2.067 2.319.667 5.113 1.474 6.209 1.793 1.672.487 1.794.341.759-.906-.679-.817-.983-1.736-.677-2.042s-.486-.508-1.759-.449c-1.273.06-3.525-.213-5.004-.605s-2.926-.329-3.217.142M292 48.943c-3.733 2.054-6.741 3.065-9.707 3.262-1.764.118-3.008.413-2.765.656.691.691-4.534 3.139-6.701 3.139-1.125 0-1.667.45-1.285 1.068.363.588 1.402.761 2.309.385.907-.375 7.049-2.633 13.649-5.017 7.738-2.796 10.934-4.332 9-4.327-1.65.005-3.675.38-4.5.834m250.239 3.525c44.109 15.235 85.193 38.475 121.449 68.701 6.335 5.282 8.153 6.374 8.037 4.829-.083-1.099-.631-1.998-1.217-1.998s-1.715-.9-2.508-2-2.038-2-2.766-2c-1.66 0-6.328-4.573-5.507-5.394.334-.333-.369-.606-1.56-.606s-2.167-.45-2.167-1-.482-1-1.071-1c-.59 0-1.711-.639-2.491-1.42-1.09-1.089-1.132-1.536-.179-1.921.683-.275.228-.537-1.009-.58S649 107.55 649 107s-.675-1-1.5-1-1.5-.395-1.5-.879c0-.483-1.35-1.438-3-2.121s-3-1.638-3-2.121-.576-.879-1.279-.879c-.704 0-1.928-.9-2.721-2s-1.811-2-2.263-2-1.787-.9-2.967-2-2.85-2.001-3.709-2.002c-.858-.002-3.136-1.351-5.061-2.998s-3.869-2.996-4.32-2.998c-.451-.001-2.782-1.352-5.18-3.002s-5.093-3-5.989-3c-.989 0-1.345-.46-.906-1.17.469-.758.201-.969-.763-.6-.844.324-1.99-.238-2.655-1.302-.741-1.187-1.781-1.637-2.842-1.23-.969.372-1.42.233-1.073-.329.33-.534-1.397-1.56-3.836-2.28S590 71.379 590 70.89c0-.49-.675-.89-1.5-.89s-1.5-.45-1.5-1-.68-1-1.511-1-3.418-.836-5.75-1.858a362 362 0 0 0-6.989-2.979c-1.513-.616-2.75-1.538-2.75-2.049s-2.25-1.506-5-2.211-5-1.646-5-2.092-1.035-.811-2.301-.811c-2.634 0-7.68-2.132-7.691-3.25-.004-.413-1.385-.75-3.067-.75s-2.839-.357-2.569-.793c.269-.435-.934-.901-2.675-1.033-1.74-.133-3.599-.676-4.131-1.208-.531-.531-2.563-.951-4.516-.932-2.725.026-.59 1.057 9.189 4.434M393.5 49.679c-9.953.634-34.158 3.479-41 4.819l-7 1.371 7-.37c3.85-.203 9.925-.844 13.5-1.424 8.78-1.426 29.911-2.911 32.347-2.274 1.32.345 1.731.134 1.25-.643-.52-.843 1.616-1.158 7.844-1.158 5.74 0 8.559.375 8.559 1.14 0 .774 1.685.974 5.25.624 11.859-1.165 46.45 2 67.75 6.199a361 361 0 0 0 8.729 1.591c2.326.387 3.987 1.096 3.691 1.575s1.267.871 3.474.871 5.046.416 6.309.925 4.406 1.499 6.983 2.2c2.577.7 4.463 1.634 4.191 2.074-.272.441.822.801 2.431.801s5.123.84 7.809 1.866c7.008 2.678 11.81 4.14 13.454 4.095 3.96-.109-18.332-7.73-36.263-12.398-17.795-4.632-38.826-8.614-46.808-8.861-3.575-.111-6.738-.518-7.03-.905-1.396-1.852-43.979-3.296-62.47-2.118M338 56.972c-1.375.448-5.988 1.59-10.25 2.538S320 61.441 320 61.693c0 .755 8.456-.032 9.026-.84.289-.41 2.539-.863 5-1.006 3.984-.231 9.974-2.285 9.974-3.42 0-.655-3.212-.363-6 .545M264.5 59c.351.567-.49 1-1.941 1-1.407 0-2.559.378-2.559.839 0 1.121-4.587 3.161-7.106 3.161-1.107 0-1.734.45-1.394 1 .352.569-.509 1-2 1s-2.352.431-2 1-.509 1-2 1-2.352.431-2 1c.34.55-.309 1-1.441 1S240 70.45 240 71s-.849 1-1.886 1c-2.457 0-7.274 2.507-6.432 3.348.358.359-.549.652-2.015.652S227 76.45 227 77s-.675 1-1.5 1-1.5.351-1.5.781c0 .429-1.238 1.347-2.75 2.039-5.07 2.321-7.25 3.649-7.25 4.417 0 .42-.927.763-2.059.763s-1.781.45-1.441 1-.084 1-.941 1-1.563.338-1.567.75c-.009.913-4.864 3.25-6.75 3.25-.748 0-1.106.411-.795.914.31.502-.756 1.498-2.369 2.212s-2.667 1.729-2.342 2.256c.34.551-.131.68-1.11.305-1.054-.405-1.918-.089-2.271.83-.313.816-1.383 1.483-2.379 1.483-.995 0-1.959.338-2.143.75-.601 1.353-8.687 7.25-9.941 7.25-.674 0-.947.279-.606.619.652.652-1.643 3.381-2.843 3.381-.385 0-2.372 1.463-4.415 3.25-5.423 4.745-7.979 6.75-8.604 6.75-.304 0-1.689 1.35-3.077 3-1.389 1.65-3.235 3-4.103 3s-1.315.262-.995.582c.766.766-6.309 7.418-7.89 7.418-.673 0-1.503.877-1.843 1.949-.374 1.179-1.191 1.729-2.067 1.393-.841-.323-1.449.033-1.449.848 0 1.559-2.515 5.166-5.35 7.674-6.006 5.311-7.513 6.939-6.948 7.504.347.348-.145.632-1.094.632s-1.49.382-1.201.849-.472 1.774-1.691 2.904c-3.767 3.491-7.716 8.233-7.716 9.264 0 .541-.702.983-1.559.983s-1.281.45-.941 1 .141 1-.441 1-1.059.59-1.059 1.312-1.343 2.304-2.983 3.518-3.725 3.638-4.63 5.389c-.906 1.751-2.15 3.752-2.767 4.447-2.854 3.221-3.655 4.334-3.12 4.334.581 0-.278 1.15-4 5.357-2.005 2.267-3.076 3.782-6.279 8.887-.946 1.509-2.358 2.746-3.138 2.75-.779.003-1.137.285-.796.626.904.905-5.1 12.371-6.825 13.033-.804.308-1.462 1.211-1.462 2.006 0 1.389-3.887 9.303-5.078 10.338-1.034.899-3.922 7.273-3.922 8.657 0 .74-.42 1.346-.933 1.346s-1.243 1.012-1.624 2.25c-.38 1.237-1.535 3.055-2.567 4.039-1.597 1.523-1.945 2.681-1.865 6.217.007.278-1.343 3.19-3 6.471-1.656 3.281-3.011 6.397-3.011 6.925s-1.35 3.875-3 7.44-3 7.159-3 7.988-.288 2.256-.639 3.172c-.516 1.345-.822 1.408-1.587.332-.676-.952-.806-.69-.454.916.271 1.238.183 2.25-.195 2.25-.379 0-1.255 2.137-1.946 4.75s-2.166 7.45-3.274 10.75-2.684 8.925-3.499 12.5c-.816 3.575-1.958 8.525-2.537 11-.58 2.475-1.23 6.525-1.445 9s1.559-3.15 3.942-12.5c11.546-45.299 28.978-84.895 53.927-122.5 28.087-42.334 65.913-80.188 107.569-107.65 8.051-5.307 15.917-10.526 17.48-11.598 4.911-3.366 33.676-17.981 45.158-22.943 9.897-4.278 10.618-4.757 7.191-4.782-2.291-.016-3.563.372-3.191.973m74.75 2.496c-1.902 2.16-1.508 2.579 1.246 1.324 3.762-1.714 5.826.838 9.071 11.219 1.536 4.914 2.936 8.792 3.11 8.617.175-.175-.152-2.859-.726-5.965-1.34-7.249-4.632-14.691-6.498-14.691-.799 0-1.453-.45-1.453-1 0-1.484-3.311-1.139-4.75.496M314 63c-2.231.715-2.097.811 1.25.9 2.063.055 3.75-.35 3.75-.9 0-1.145-1.425-1.145-5 0m-15.5 4.787c-9.408 3.125-10.511 3.705-7.623 4.006 1.858.194 3.86-.13 4.45-.72S297.462 70 298.759 70c1.318 0 2.086-.441 1.741-1-.378-.612 1.176-1 4-1s4.378-.388 4-1c-.34-.55.335-1 1.5-1s1.84-.45 1.5-1c-.813-1.316-.36-1.413-13 2.787m32.1 1.746c-3.197 2.999-6.285 5.162-6.861 4.806-.611-.378-.751-.167-.334.506.417.676.094 1.155-.779 1.155-.82 0-1.777.9-2.126 2s-1.42 2-2.379 2-2.71.9-3.891 2c-1.18 1.1-2.615 2-3.188 2s-1.042.367-1.042.814c0 1.113-7.78 5.186-9.906 5.186-.944 0-2.589.791-3.655 1.757-2.451 2.221-6.956 4.243-9.456 4.243-1.818 0-8.012 3.018-10.733 5.229-1.498 1.217-1.672 7.392-.234 8.281.559.346.758 1.047.441 1.559-.316.512.055.931.826.931 1.72 0 3.732 6.365 3.673 11.616-.024 2.136-.726 5.684-1.56 7.884s-1.987 5.575-2.561 7.5-1.352 3.95-1.73 4.5c-.898 1.305-2.766 7.14-3.602 11.25-.364 1.787-1.012 3.25-1.44 3.25-.853 0-4.971 10.863-5.782 15.25-.279 1.512-.809 2.75-1.176 2.75-.368 0-.771 1.238-.896 2.75-.124 1.512-.637 2.888-1.14 3.057s-1.484 2.532-2.18 5.25-1.632 4.943-2.078 4.943-.811 1.104-.811 2.453c0 2.727-1.932 7.547-3.025 7.547-.387 0-.982 2.033-1.322 4.517s-1.314 5.86-2.162 7.5c-.848 1.641-1.142 2.983-.653 2.983.49 0 2.816-5.287 5.169-11.75 5.819-15.981 7.361-20.157 17.451-47.25 12.002-32.231 13.271-37.49 10.277-42.614-5.036-8.621-5.76-10.471-4.801-12.263.998-1.864 1.855-2.284 12.337-6.042 14.444-5.178 35.587-18.727 45.156-28.937 4.999-5.334 2.291-4.351-3.827 1.389m-53.1 5.847c-4.4 1.813-10.025 4.133-12.5 5.155-13.613 5.623-45.914 23.266-54 29.495-2.316 1.784-2.351 1.927-.471 1.948 1.116.012 2.678-.878 3.471-1.978s2.242-2 3.221-2c.978 0 1.779-.45 1.779-1s.75-1 1.667-1c.916 0 1.373-.293 1.015-.652-.936-.936 4.101-3.348 6.991-3.348 1.375 0 2.175-.437 1.827-1-.34-.55.159-1 1.108-1s1.432-.293 1.074-.651c-.998-.999 2.53-3.281 5.127-3.317 1.279-.018 2.033-.478 1.691-1.032-.34-.55.309-1 1.441-1S243 93.55 243 93s1.2-1 2.667-1 2.373-.293 2.015-.652c-.749-.748 3.857-3.348 5.932-3.348.762 0 1.386-.45 1.386-1s.9-1 2-1 2-.45 2-1 1.125-1 2.5-1 2.5-.378 2.5-.839c0-1.109 4.576-3.161 7.047-3.161 1.074 0 1.953-.45 1.953-1s1.125-1 2.5-1 2.5-.45 2.5-1 .606-1 1.346-1c1.473 0 7.654-2.886 7.654-3.573 0-.807-1.52-.335-9.5 2.953m270-.38c-.349.565.47 1 1.882 1 1.375 0 2.778.45 3.118 1s1.518 1 2.618 1 1.722.45 1.382 1c-.362.585.676 1 2.5 1 2.102 0 2.886.376 2.405 1.155-.41.662-.278.884.31.521.563-.348 2.292.457 3.842 1.789s3.135 2.225 3.522 1.986c.972-.601 9.921 2.795 9.921 3.765 0 .431.675.784 1.5.784s1.5.45 1.5 1 .9 1 2 1 2 .45 2 1 .873 1 1.941 1 2.219.45 2.559 1 1.392 1 2.338 1 2.369.9 3.162 2 2.242 2 3.221 2c.978 0 1.779.45 1.779 1s.927 1 2.059 1 1.781.45 1.441 1 .084 1 .941 1 1.559.45 1.559 1 .9 1 2 1 2 .45 2 1 .59 1 1.311 1c.722 0 2.278.9 3.459 2 1.18 1.1 2.53 2 3 2 .469 0 1.725.8 2.791 1.777 1.067.978 3.514 2.878 5.439 4.223s4.372 3.245 5.438 4.222 3.171 2.322 4.678 2.99c1.507.667 2.521 1.567 2.253 2s.384.788 1.45.788c2.133 0 4.547 2.301 3.506 3.342-.362.362.092.658 1.008.658.917 0 1.667.45 1.667 1s.75 1 1.667 1c.916 0 1.364.303.994.672s1.114 1.855 3.298 3.301 6.154 4.856 8.823 7.578 6.503 6.344 8.52 8.048 3.336 3.464 2.932 3.91-.228.523.39.17 1.968.532 3 1.966c2.041 2.836 4.473 5.407 8.973 9.487 4.606 4.176 8.403 8.594 8.403 9.778 0 .6.702 1.09 1.559 1.09s1.328.374 1.045.832 1.259 2.463 3.426 4.455c2.167 1.993 4.059 4.204 4.205 4.915.146.71.94 1.819 1.765 2.464s1.556 1.659 1.625 2.253.181 1.531.25 2.081.724 1 1.456 1 1.97 1.238 2.75 2.75 2.878 4.325 4.66 6.25 3.246 4.077 3.25 4.781c.005.705.657 1.53 1.448 1.834s1.727 1.864 2.079 3.469 1.13 2.916 1.728 2.916.809.279.468.619c-.814.814 2.032 3.638 3.237 3.211.935-.331-6.735-12.231-16.326-25.33-12.794-17.474-40.432-47.119-55.016-59.011a515 515 0 0 1-8.5-7.092c-5.257-4.52-25.559-19.276-33.109-24.065-19.397-12.302-38.72-22.485-57.366-30.233-11.216-4.66-10.323-4.411-11.134-3.099M353.254 85.25c.257.688 3.731 11.15 7.719 23.25s7.446 22.208 7.685 22.462c.895.954-.959-8.583-2.228-11.462-.728-1.65-2.004-5.475-2.836-8.5-3.104-11.282-8.802-27-9.788-27-.561 0-.809.563-.552 1.25m-155.842 34.055C110.531 183.425 57.934 273.518 45.508 379.5c-3.296 28.114-2.908 64.4.967 90.5 1.755 11.816 1.764 7.446.025-12-1.641-18.352-1.863-48.683-.48-65.5.498-6.05 1.179-14.6 1.514-19s1.262-10.25 2.061-13 2.083-9.05 2.854-14 2.131-11.475 3.023-14.5 1.8-6.4 2.016-7.5c.963-4.899 2.736-10.706 6.106-20 1.994-5.5 4.249-12.25 5.01-15 1.603-5.788 4.453-11.5 5.74-11.5.489 0 .652-.908.362-2.018s.107-2.652.883-3.428S77 270.697 77 270.152c0-.544.642-2.264 1.427-3.821s3.97-8.006 7.078-14.331 6.237-12.175 6.953-13c.715-.825 2.088-3.053 3.051-4.951s2.367-4.068 3.121-4.822c.753-.753 1.37-1.756 1.37-2.227s.568-1.452 1.262-2.179 1.828-2.446 2.521-3.821 2.368-4.018 3.722-5.873c1.353-1.855 2.268-3.685 2.032-4.068-.237-.382.446-1.326 1.517-2.098s1.946-1.828 1.946-2.348.689-1.658 1.532-2.529c3.791-3.922 6.566-7.763 7.102-9.834.321-1.238 1.209-2.25 1.974-2.25.766 0 1.392-.381 1.392-.847 0-.877 1.724-3.076 7.265-9.268 1.779-1.988 4.518-5.249 6.086-7.246s3.325-3.339 3.905-2.981c.616.381.757.172.339-.503-.392-.635-.236-1.155.346-1.155s1.059-.686 1.059-1.525 1.098-1.942 2.439-2.452c1.342-.51 2.927-1.839 3.524-2.953 1.818-3.398 6.449-7.549 8.037-7.205.825.179 1.19.009.81-.376-.853-.868 2.286-4.336 5.386-5.952 1.267-.66 2.206-1.684 2.086-2.274-.292-1.434 6.256-6.37 7.255-5.47.431.389.46.145.064-.543-.457-.795-.091-1.25 1.007-1.25.949 0 1.447-.279 1.106-.619-.709-.709 1.692-3.381 3.039-3.381.492 0 2.662-1.792 4.821-3.983s4.788-3.991 5.843-4 1.624-.309 1.267-.666c-.803-.803 4.35-5.348 6.066-5.35.688 0 1.25-.451 1.25-1.001s.567-1 1.259-1c.693 0 1.822-.9 2.509-2s2.097-2 3.133-2c1.669 0 3.731-2.701 2.784-3.648-.199-.199-4.822 2.93-10.273 6.953m490.572 24.146c8.496 8.498 15.616 15.282 15.823 15.076.707-.708-.94-4.527-1.953-4.527-1.175 0-8.854-7.775-8.854-8.965 0-.441-.895-1.036-1.988-1.322s-2.432-1.688-2.975-3.116S686.54 138 685.918 138s-3.244-2.25-5.826-5-5.338-5-6.125-5 5.52 6.953 14.017 15.451m-318.435-9.201c1.975 6.505 25.986 79.199 27.992 84.75 1.457 4.029 2.354 5.55 2.36 4 .006-1.375-.666-4.3-1.494-6.5-1.525-4.052-4.268-12.552-4.979-15.429-1.086-4.394-3.01-9.071-3.732-9.071-.448 0-.53-.46-.182-1.022.829-1.342-2.385-10.978-3.662-10.978-.543 0-.701-.9-.352-2s.214-2-.301-2-1.182-1.835-1.483-4.078c-.3-2.242-1.304-4.914-2.229-5.937-.926-1.022-1.393-2.328-1.039-2.901.355-.574.078-2.064-.614-3.313s-1.131-2.704-.975-3.234-.614-3.005-1.709-5.5c-2.716-6.182-3.478-8.269-3.683-10.078-.368-3.255-2.667-8.959-3.612-8.959-.562 0-.695.972-.306 2.25m-64.907 4.593c-1.5 1.657-5.486 10.619-7.631 17.157-.451 1.375-5.414 14.875-11.028 30-14.204 38.269-14.004 37.667-12.457 37.667 1.085 0 2.116-2.617 4.994-12.667.079-.275.508-1.85.955-3.5s1.852-5.083 3.123-7.628 2.043-4.897 1.715-5.226-.088-1.212.536-1.964c.623-.751.838-1.662.476-2.024s-.133-.658.508-.658c.642 0 1.167-.553 1.167-1.229 0-1.556 4.526-13.962 7.07-19.381 1.062-2.26 1.93-4.988 1.93-6.062 0-1.075 1.183-4.4 2.628-7.391s3.232-7.143 3.97-9.229c3.007-8.493 6.596-8.904 8.36-.958.701 3.162 1.859 6.891 2.573 8.285s1.616 4.319 2.005 6.5 1.553 5.368 2.586 7.083 1.878 4.302 1.878 5.75.348 2.632.773 2.632c.683 0 2.042 4.311 3.781 12 .311 1.375.989 2.927 1.506 3.45.517.522.94 2.003.94 3.29s.862 4.03 1.917 6.096c1.054 2.067 2.226 5.536 2.604 7.711.857 4.924 4.73 15.419 5.698 15.438.395.008.539-.547.32-1.235L333.155 209c-12.54-39.338-20.599-63.87-22.232-67.678-2.009-4.688-3.683-5.349-6.281-2.479m403.924 25.907c2.093 2.613 3.914 4.904 4.045 5.092s1.06-.136 2.064-.72c1.184-.688 1.344-1.072.457-1.092-1.374-.03-7.086-5.875-7.116-7.28-.009-.412-.745-.75-1.636-.75-1.188 0-.603 1.27 2.186 4.75m5.601 6.178c.183.51 4.032 5.62 8.553 11.354 4.521 5.735 9.861 12.855 11.867 15.823 5.68 8.403 17.413 26.894 17.413 27.442 0 .271 1.186 2.371 2.635 4.667 1.45 2.296 5.026 8.925 7.948 14.731 2.921 5.805 5.335 9.804 5.364 8.887s-1.072-3.908-2.447-6.645c-1.375-2.738-2.5-5.437-2.5-5.999s-.337-1.171-.75-1.355-1.766-2.294-3.007-4.69c-3.593-6.937-5.694-10.605-6.384-11.143-.352-.275-1.678-2.525-2.946-5-2.504-4.885-5.929-10.144-7.229-11.1-.45-.33-.927-1.23-1.062-2-.616-3.527-1.872-5.9-3.122-5.9-.751 0-1.651-.9-2-2s-1.04-2-1.536-2-.648-.787-.338-1.75c.475-1.477.394-1.516-.516-.25-.933 1.297-1.081 1.263-1.095-.25-.008-.963-.465-1.75-1.015-1.75s-1-.735-1-1.633-.969-2.473-2.153-3.5S727 185 727.373 185c.374 0-1.357-2.037-3.847-4.526-4.13-4.13-4.987-5.556-4.644-7.724.065-.412-.584-.75-1.441-.75s-1.281-.45-.941-1-.121-1-1.024-1c-.904 0-1.493.417-1.309.928m-466.802 48.255c-.459.725-.891 1.542-.96 1.817s-.47 1.963-.89 3.75-1.084 3.25-1.473 3.25c-.39 0-.743.563-.784 1.25s-.978 3.613-2.081 6.5-1.646 5.25-1.207 5.25c.882 0 9.271-22.093 8.631-22.732-.22-.221-.776.191-1.236.915m15.267 30.037C247.148 291.616 234 328.937 234 330.494c0 1.326 7.984 1.506 66.889 1.506 62.27 0 67.028-.121 68.903-1.75 2.001-1.739 1.952-1.94-7.639-31.497-5.309-16.361-9.782-29.362-9.94-28.891s.162 2.608.71 4.748c.548 2.139 1.54 6.027 2.205 8.64s1.583 4.75 2.04 4.75.832 1.019.832 2.264.948 4.733 2.106 7.75 2.44 7.42 2.849 9.785c.408 2.364 1.226 4.782 1.816 5.372s.806 1.767.481 2.615c-.389 1.012-.19 1.294.578.819.725-.448 1.187-.035 1.214 1.086.024.995.648 3.502 1.386 5.57.762 2.135.952 4.003.44 4.319-.497.307-.644.977-.327 1.489.353.571-24.98.931-65.515.931-73.911 0-68.929.558-65.127-7.295 1.154-2.385 2.099-5.071 2.099-5.968s1.125-3.747 2.5-6.333 2.5-5.778 2.5-7.093.9-4.155 2-6.311 2-4.619 2-5.474c0-.854.419-2.335.931-3.29 1.213-2.264 4.548-11.531 6.203-17.236.718-2.475 1.881-5.094 2.584-5.82s1.53-2.526 1.838-4c.307-1.474 1.826-5.83 3.376-9.68s3.659-9.7 4.689-13c1.029-3.3 2.243-6.272 2.699-6.605s.682-2.034.504-3.78c-.25-2.454-2.339 2.342-9.192 21.105M337 226.84c0 1.232.84 3.909 1.866 5.95 1.026 2.04 2.46 6.185 3.185 9.21 1.418 5.916 3.798 11.485 4.575 10.708.765-.765-7.188-25.333-8.791-27.158-.481-.547-.835 0-.835 1.29M730.5 228c.853 1.65 1.254 3 .891 3s.474.893 1.862 1.984c1.387 1.091 2.806 3.116 3.154 4.5S737.48 240 738.019 240s.981.697.981 1.55c0 1.876 2.739 7.331 4.63 9.223.753.753 1.37 2.238 1.37 3.298s.4 1.929.889 1.929c.488 0 1.188 1.599 1.555 3.553.366 1.953 1.299 3.795 2.073 4.092 1.37.525 3.079 4.099 2.681 5.605-.109.413.279.75.861.75s.781.45.441 1-.115 1 .5 1 .848.437.517.972 1.227 4.856 3.462 9.603c2.234 4.746 3.97 9.146 3.857 9.777-.112.632.554 2.89 1.48 5.02S765 301.809 765 302.5s.675 1.815 1.5 2.5c2.002 1.661 1.972 1.503-1.604-8.67-7.09-20.164-19.678-47.131-29.679-63.58-4.567-7.511-7.859-10.826-4.717-4.75M400 226.256c0 .184 4.949 15.389 10.997 33.789s11.961 36.493 13.139 40.205 2.642 6.731 3.253 6.708c.611-.024 3.586-.66 6.611-1.415l5.5-1.373-6.669-.085-6.669-.085-1.111-4.75c-.612-2.613-1.364-6.1-1.672-7.75s-.969-3.15-1.469-3.333-.91-1.392-.91-2.685-.522-3.619-1.16-5.167c-.639-1.548-1.058-3.423-.933-4.165.125-.743-.199-1.088-.718-.767-.52.322-1.233-.871-1.584-2.649-.628-3.179-3.99-12.562-5.722-15.97-.486-.955-.883-3.218-.883-5.028s-.672-4.25-1.492-5.421c-.821-1.172-1.634-3.061-1.808-4.197-.173-1.137-.627-2.378-1.008-2.759-.38-.381-.692-2.137-.692-3.903s-.67-3.767-1.489-4.447-1.316-1.522-1.105-1.872-.244-1.217-1.011-1.926c-.767-.71-1.395-1.139-1.395-.955M238.631 243.52c-.339.884-1.019 1.358-1.51 1.055s-1.128.343-1.414 1.438c-.348 1.332-.138 1.761.636 1.296.874-.523.875-.341.005.749-1.022 1.279-3.265 8.199-3.306 10.199-.008.416-1.152 3-2.542 5.743s-2.473 5.102-2.408 5.243c.374.805-2.305 8.771-3.119 9.274-.535.33-.973 1.743-.973 3.138s-.614 3.731-1.365 5.191c-3.432 6.672-5.635 12.413-5.635 14.681 0 1.36-.45 2.473-1 2.473s-1 .62-1 1.378-.759 3.12-1.686 5.25-1.602 4.209-1.5 4.622-.264.75-.814.75-1 .873-1 1.941-.45 2.219-1 2.559-1 1.512-1 2.605-1.125 4.1-2.5 6.683-2.5 5.658-2.5 6.833c0 1.818-2.222 7.607-6.096 15.879-.515 1.1-2.195 5.731-3.733 10.291s-3.486 9.096-4.329 10.08c-.843.985-1.816 3.564-2.162 5.731-.347 2.168-1.932 6.632-3.524 9.92-1.591 3.288-3.221 7.553-3.623 9.478s-1.807 5.462-3.123 7.86-2.145 4.76-1.842 5.25c.302.489.094.89-.464.89-.557 0-1.324 1.688-1.703 3.75s-.998 3.975-1.375 4.25c-.599.437-5.384 12.861-6.547 17-1.44 5.124-5.758 16.559-6.414 16.988-.432.281-1.807 3.437-3.057 7.012s-3.112 8.17-4.14 10.21-1.868 4.816-1.868 6.167-.338 2.606-.75 2.79c-.412.183-1.65 2.105-2.75 4.27-1.1 2.166-2.9 4.779-4 5.808s-2.056 2.294-2.125 2.812a323 323 0 0 0-.25 1.943c-.069.55-.827 1-1.684 1s-1.321.386-1.029.858c.292.471-1.482 1.892-3.941 3.157s-4.471 2.62-4.471 3.012c0 1.327-9.435 2.3-24.339 2.512-17.882.254-17.751.177-18.433 10.812-.588 9.153.316 14.546 2.577 15.379.932.343 1.995 1.073 2.362 1.622.437.653 3.2.516 8-.397 9.486-1.806 125.46-1.76 128.842.05 2.28 1.22 8.991-.334 8.991-2.083 0-.507.563-.922 1.25-.921 1.819.001 1.083-18.725-.855-21.751-1.392-2.173-2.014-2.256-18.168-2.436-27.421-.306-28.899-.528-33.641-5.058-2.913-2.784-3.093-3.392-3.204-10.875-.065-4.359.273-8.168.75-8.463s.868-1.432.868-2.527.706-3.356 1.569-5.025 1.604-4.459 1.646-6.2.349-3.391.683-3.666c.333-.275 2.127-5.204 3.986-10.953s3.995-11.069 4.748-11.822c.752-.752 1.42-2.348 1.483-3.546.163-3.08.342-3.822 1.69-6.994.657-1.548 1.195-2.982 1.195-3.185s.52-1.637 1.156-3.185 1.339-3.94 1.562-5.315.827-2.65 1.343-2.833c.517-.184.942-1.084.945-2 .004-.917.679-2.956 1.5-4.531.822-1.576 1.494-3.869 1.494-5.097s.9-3.271 2-4.539 2-3.047 2-3.953.427-2.074.949-2.597c.522-.522 1.165-2.525 1.428-4.45.53-3.878 2.625-9.908 5.035-14.5.867-1.65 1.578-3.511 1.582-4.136.003-.624.678-2.424 1.5-4 .821-1.575 1.496-4.011 1.5-5.414.003-1.402.546-3.09 1.206-3.75.902-.902 13.997-1.2 52.787-1.2 50.871 0 51.589.028 51.738 2 .089 1.176-.466 2-1.346 2-.823 0-1.219.45-.879 1s.109 1-.512 1c-1.167 0-4.087 2.515-4.024 3.464.137 2.057-.139 2.536-1.464 2.536-.825 0-1.5.717-1.5 1.594 0 .876-.895 1.827-1.989 2.113s-1.742.919-1.441 1.407c.302.487-.154.886-1.011.886-1.383 0-1.721.583-1.493 2.576.036.316-.864 1.382-2 2.367S310 381.144 310 381.645s-.788 1.654-1.75 2.562c-2.855 2.695-4.022 4.376-4.436 6.391-.215 1.046-1.125 1.845-2.023 1.776-.941-.072-1.426.414-1.144 1.149.269.701.009 1.572-.579 1.935-.587.363-1.072 1.421-1.077 2.351s-1.579 3.348-3.5 5.374c-1.92 2.026-3.494 4.276-3.498 5-.003.724-.9 2.667-1.993 4.317s-1.99 3.572-1.993 4.271c-.004.7-1.122 2.957-2.485 5.017s-2.77 5.2-3.125 6.978c-.356 1.779-.988 3.234-1.405 3.234s-.999 1.012-1.293 2.25c-.793 3.336-3.57 10.998-4.706 12.986-1.19 2.081-1.286 3.764-.215 3.764.427 0 2.318-4.163 4.201-9.25s5.133-12.752 7.222-17.032 3.799-7.976 3.799-8.214 2.484-4.737 5.521-9.996c8.115-14.056 19.627-29.447 30.705-41.05 5.376-5.63 9.774-10.512 9.774-10.847 0-.336-24.74-.611-54.977-.611h-54.977l-1.398 2.25c-.768 1.238-4.644 11.25-8.611 22.25a9094 9094 0 0 1-11.058 30.5c-15.466 42.253-23.73 67.732-25.156 77.56-1.064 7.339-.997 8.414.754 12 3.41 6.986 6.527 7.821 31.423 8.421 11.825.286 22.063.883 22.75 1.328.868.562 1.25 3.992 1.25 11.231 0 10.09-.074 10.441-2.338 11.009-1.286.322-15.574.166-31.75-.348-30.243-.961-79.944-.607-99.412.709-15.9 1.075-15.5 1.365-15.5-11.263 0-7.102.397-10.731 1.25-11.439.72-.597 8.673-1.181 18.75-1.377 15.353-.298 18.072-.604 22.162-2.49 10.4-4.797 17.242-15.384 27.363-42.341 2.581-6.875 5.286-13.85 6.012-15.5.725-1.65 2.898-7.275 4.828-12.5s4.817-12.875 6.417-17 6.987-18.075 11.973-31 14.544-37.675 21.24-55c15.664-40.529 33.203-88.135 32.668-88.67-.229-.229-.693.307-1.032 1.19M347 256.257c0 3.626 1.72 8.608 3.625 10.495 1.678 1.664 1.731 1.662 1.086-.039-.372-.983-1.391-4.245-2.265-7.25-1.7-5.85-2.446-6.827-2.446-3.206m423.152 4.493c6.066 13.851 8.488 20.038 13.015 33.25 8.768 25.589 15.295 54.426 19.013 84 2.001 15.916 1.711 72.89-.452 88.942-.922 6.844-1.514 12.605-1.315 12.805s1.137-1.8 2.085-4.443c1.492-4.161 1.783-10.291 2.172-45.804.461-41.984.476-41.702-3.635-69-1.767-11.732-7.421-39.968-8.11-40.5-.356-.275-.961-2.627-1.344-5.227-.383-2.599-1.069-4.956-1.523-5.237-.455-.281-1.12-2.466-1.479-4.856-.358-2.389-1.535-5.993-2.615-8.009S784 292.132 784 291.063c0-1.07-.392-2.187-.871-2.483-.697-.431-1.925-4.536-2.118-7.078-.02-.268-.94-2.095-2.043-4.059-1.104-1.965-1.746-3.993-1.428-4.508.318-.514.212-.935-.236-.935s-1.41-1.687-2.138-3.75c-3.252-9.218-3.702-10.25-4.47-10.25-.448 0-.536-.45-.196-1s-.068-1-.905-1c-1.287 0-1.2.739.557 4.75M465.5 299c-.342.553-4.863 1-10.118 1-6.079 0-9.277.36-8.882 1 .368.595-.823 1-2.941 1-1.957 0-3.559.45-3.559 1 0 1.282-.202 1.293 12.074-.652 18.421-2.919 59.365-2.187 73.676 1.318 1.311.321 2.25.088 2.25-.558 0-.609-1.462-1.14-3.25-1.178-2.569-.056-2.841-.231-1.298-.834 1.147-.449-2.071-.847-7.81-.967-5.369-.112-12.047-.637-14.839-1.166-6.778-1.286-34.504-1.257-35.303.037m75.167 7.574c5.592 1.325 14.987 3.988 20.877 5.918C573.718 316.479 573 316.322 573 315c0-.55-.9-1-2-1s-2-.45-2-1-1.013-1.005-2.25-1.011c-2.551-.012-9.448-2.039-14.968-4.399-2.045-.875-5.334-1.59-7.309-1.59-2.139 0-3.341-.404-2.973-1 .387-.626-1.554-.969-5.191-.918l-5.809.082zm227.396 3.676c-.034 2.063.337 3.75.826 3.75.79 0 2.196 4.798 2.652 9.053.092.854 1.133 4.343 2.313 7.754s2.146 7.44 2.146 8.954.459 4.324 1.02 6.246c.561 1.921 1.92 9.568 3.018 16.993 2.526 17.062 4.155 23.556 3.389 13.502-1.16-15.221-9.936-56.657-14.295-67.502-.945-2.349-1.009-2.274-1.069 1.25M633.5 311.485c-1.65.727-3.281 1.148-3.625.936s-1.175 1.745-1.847 4.347a215 215 0 0 1-2.625 9.16c-.772 2.436-1.403 5.672-1.403 7.193 0 2.532-.356 2.792-4.25 3.102-4.118.327-4.16.364-1.345 1.205 1.753.523 3.515.482 4.444-.105.847-.534 2.915-5.671 4.595-11.416 1.681-5.745 3.42-11 3.865-11.676.477-.726 3.053-1.231 6.275-1.231 6.679 0 6.88.376 7.726 14.5.693 11.571 6.15 55.261 11.676 93.488 2.403 16.618 3.504 27.096 2.957 28.118-.828 1.548-11.936 5.022-14.319 4.478-.618-.141-.784-.067-.368.165s.455.91.086 1.506c-.451.73-.044.82 1.244.276 1.053-.445 4.468-1.023 7.59-1.285 5.127-.43 5.793-.757 6.878-3.376 1.359-3.28.712-12.973-1.634-24.498-.798-3.921-1.142-7.932-.765-8.914.47-1.225.318-1.559-.485-1.063-.798.493-1.196-.328-1.252-2.586-.045-1.82-.246-4.434-.447-5.809-.2-1.375-1.308-10.375-2.463-20-1.154-9.625-2.514-19.75-3.023-22.5-.508-2.75-1.142-7.475-1.408-10.5-2.286-25.978-3.773-38.827-4.701-40.64-1.1-2.148-4.927-4.43-7.173-4.279-.662.045-2.553.676-4.203 1.404m-55.66 6.676c4.648 2.135 6.757 1.759 3.587-.64-1.06-.801-3.277-1.434-4.927-1.405-2.909.051-2.869.113 1.34 2.045m16.676 7.245c6.058 2.9 12.963 6.503 15.344 8.006s4.624 2.413 4.984 2.023.091-.911-.6-1.157c-.691-.247-1.002-.86-.691-1.363s-.587-.915-1.994-.915-2.559-.37-2.559-.822-2.253-1.84-5.007-3.084c-2.754-1.245-4.752-2.675-4.441-3.179.311-.503-1.036-.915-2.993-.915s-3.559-.45-3.559-1-1.152-1-2.559-1c-1.451 0-2.292-.433-1.941-1 .359-.581-.559-.972-2.191-.933-2.114.05-.082 1.372 8.207 5.339M462 323.084c-7.919 1.012-25.331 4.879-27.166 6.033-1.053.662.74 7.014 8.497 30.111 12.356 36.791 20.841 60.933 21.267 60.507.602-.601-3.744-14.985-5.732-18.971-.476-.955-.866-3.093-.866-4.75s-.36-3.014-.799-3.014c-.975 0-3.539-6.583-3.869-9.932-.311-3.153-2.354-8.068-3.354-8.068-.428 0-1.308-2.363-1.956-5.25s-1.436-5.925-1.751-6.75a51 51 0 0 1-.882-2.5c-.17-.55-1.227-3.657-2.349-6.905s-2.04-6.698-2.04-7.667-.355-1.911-.789-2.095c-.433-.183-1.507-2.951-2.385-6.151-1.551-5.651-1.537-5.873.477-7.75 1.298-1.209 3.501-1.932 5.886-1.932 2.096 0 3.811-.45 3.811-1s2.365-1 5.257-1 6.82-.448 8.731-.996c3.795-1.089 37.673-1.472 42.512-.481 1.65.338 4.8.834 7 1.103 2.2.268 4.9.852 6 1.297 2.967 1.201 11.273 3.087 13.264 3.011 3.721-.141-14.54-4.967-24.254-6.41-10.928-1.622-33.508-1.846-44.51-.44M532 331c-1.173.758-.914.973 1.191.985 1.48.008 2.969.465 3.309 1.015s1.716 1 3.059 1 2.441.45 2.441 1 1.013.966 2.25.923c1.542-.052.362-.972-3.75-2.923-7.035-3.338-6.591-3.234-8.5-2m15.645 6.516c.826 2.153 4.306 4.07 7.914 4.359.857.069 1.281.575.941 1.125s.309 1 1.441 1 2.059.45 2.059 1 .627 1 1.394 1 2.84 1.35 4.606 3 3.629 3 4.139 3 2.248 1.35 3.861 3 3.143 3 3.4 3 2.777 2.25 5.6 5 5.414 5 5.757 5c.706 0 7.255 7.046 10.556 11.357 1.203 1.571 3.863 4.67 5.912 6.886s3.484 4.418 3.191 4.893.055.867.775.871c1.471.008 4.182 3.861 8.434 11.985 1.581 3.021 3.663 6.084 4.625 6.807s1.75 2.189 1.75 3.258.45 1.943 1 1.943 1 .62 1 1.379c0 .758 1.558 3.966 3.462 7.129s4.176 7.897 5.048 10.523 2.464 5.786 3.538 7.024 1.952 3.112 1.952 4.164c0 2.385 1.761 5.781 2.997 5.781 2.076 0-13.27-32.066-22.098-46.175-18.784-30.021-44.809-55.16-70.622-68.218-2.834-1.434-3.152-1.445-2.632-.091M29.538 351.938c-.364.59-1.05 4.782-1.523 9.317-.474 4.535-1.113 8.92-1.42 9.745s-.76 4.65-1.008 8.5c-.247 3.85-.971 14.2-1.609 23-.658 9.069-.878 21.848-.508 29.5.659 13.64.897 16.439 2.544 30 .5 4.125 1.16 10.65 1.464 14.5.713 9.006 1.551 13.708 2.704 15.165.507.641 1.305 4.241 1.774 8 .468 3.759 1.835 10.435 3.037 14.835s2.801 10.475 3.554 13.5 2.278 8.047 3.388 11.16c1.111 3.114 2.126 7.164 2.256 9s.815 3.934 1.521 4.66c.707.726 1.58 2.526 1.94 4 .361 1.474.924 2.905 1.252 3.18.774.649 3.259 7.13 3.355 8.75.041.688.449 1.25.908 1.25.458 0 .833.571.833 1.269 0 2.27 6.151 15.976 8.116 18.086 1.107 1.188-.65-3.824-4.171-11.901-24.338-55.82-35.534-117.552-32.124-177.125.656-11.456 2.108-27.072 3.228-34.703 1.921-13.095 2.032-16.183.489-13.688m346.327 14.812c-7.789 8.235-15.984 19.383-21.685 29.5l-2.113 3.75h2.133c1.174 0 1.832-.301 1.464-.669-.367-.368.12-1.54 1.084-2.605s1.652-2.109 1.529-2.32c-.449-.777 1.136-4.019 4.111-8.406 1.679-2.475 2.985-4.725 2.903-5s.494-.86 1.28-1.3 1.429-1.452 1.429-2.25c0-1.284.547-1.582 2.566-1.398 1.041.094 4.434-4.848 4.434-6.46 0-.875.627-1.592 1.393-1.592s1.663-.704 1.993-1.563c.336-.875 1.111-1.248 1.761-.846.792.489.892.27.316-.686-.725-1.203-.6-1.205.869-.012.944.765 1.913 1.196 2.153.956.651-.651-.604-4.849-1.449-4.849-.403 0-3.179 2.587-6.171 5.75m8.208 3.04c-.04 1.809.746 4.959 1.748 7 1.001 2.04 2.379 5.735 3.061 8.21.683 2.475 1.709 5.85 2.281 7.5s1.272 4.012 1.555 5.25.939 2.25 1.458 2.25c.518 0 .658.46.31 1.022-.829 1.342 2.385 10.978 3.662 10.978.565 0 .686-.961.283-2.25-3.812-12.181-10.709-33.351-12.298-37.75-1.834-5.077-1.992-5.247-2.06-2.21m400.274 48.71c-.02 19.25-.361 36.012-.759 37.25-.397 1.238-.31 2.25.194 2.25 2.011 0 2.968-50.29 1.285-67.5-.377-3.85-.701 8.75-.72 28m-436.777-9.39c-20.732 45.346-26.983 102.841-16.536 152.122 3.089 14.576 5.337 22.768 6.247 22.768.46 0 .56.448.221.996-.817 1.323 5.244 18.909 11.032 32.009 10.245 23.186 22.001 41.123 40.823 62.287 7.271 8.175 11.136 11.269 9.968 7.981-.875-2.465-3.412-5.273-4.764-5.273-.622 0-1.927-1.35-2.902-3s-2.448-3-3.275-3c-.826 0-1.224-.45-.884-1s-.11-1-1-1-1.34-.45-1-1 .172-1-.374-1c-.545 0-1.277-.9-1.626-2s-1.354-2-2.234-2-1.321-.279-.98-.619c.34-.341.078-1.185-.584-1.878s-1.877-2.284-2.702-3.538-2.748-3.744-4.274-5.532c-1.948-2.283-2.394-3.403-1.5-3.763.816-.328.669-.54-.409-.591-.925-.043-1.968-.979-2.317-2.079s-1.054-2-1.567-2-.933-.707-.933-1.571c0-.865-.562-2.199-1.25-2.966a104 104 0 0 1-2.34-2.715c-.955-1.157-4.41-7.568-7.809-14.49-.606-1.233-1.438-2.246-1.851-2.25s-.75-.94-.75-2.08c0-1.139-1.143-4.021-2.539-6.404s-2.706-5.163-2.91-6.178c-.758-3.77-3.817-11.865-4.692-12.42-.499-.315-1.323-3.134-1.833-6.264-.509-3.13-1.199-6.133-1.533-6.673-1.092-1.767-5.663-20.351-6.515-26.489-.458-3.3-1.371-8.25-2.029-11-.763-3.186-1.242-15.159-1.323-33-.125-27.729.914-40.312 4.54-55 .543-2.2 1.569-7.087 2.28-10.86s1.813-7.182 2.449-7.575 1.327-2.031 1.537-3.64 1.05-4.725 1.868-6.925 2.048-5.575 2.732-7.5 1.883-4.738 2.663-6.25 1.14-2.75.799-2.75.585-2.211 2.056-4.914 2.49-5.466 2.265-6.14c-.225-.675-2.135 2.549-4.245 7.164m52.114 8.39c.305 2.75 1.117 5.907 1.805 7.015 1.166 1.881 2.896 7.665 3 10.031.1 2.274 4.056 13.454 4.761 13.454.412 0 .75-.267.75-.593 0-.647-6.145-20.605-9.054-29.407l-1.818-5.5zm65.348 3.59c-.15 2.779 17.547 49.162 22.286 58.41 7.045 13.748 18.668 23.414 31.794 26.439 2.413.557 10.605 1.023 18.204 1.037 7.598.013 14.686.49 15.75 1.059 1.711.916 1.934 2.17 1.934 10.878 0 10.763-.602 12.072-5.641 12.254-1.572.056-14.784-.219-29.359-.613-17.342-.469-26.019-.379-25.108.261.797.561 11.453 1.034 24.958 1.11 12.962.073 23.811.475 24.109.895.297.42 2.842.382 5.655-.083 6.485-1.073 7.397-2.875 7.354-14.534-.047-12.924.305-12.678-18.261-12.818-8.364-.064-16.557-.448-18.207-.853-4.381-1.078-8.5-2.908-8.5-3.776 0-.416-1.04-.756-2.311-.756-1.272 0-3.278-.9-4.459-2s-2.585-2-3.121-2-1.26-.9-1.609-2-1.087-2-1.639-2-1.679-.675-2.504-1.5-1.181-1.5-.792-1.5-.463-1.17-1.893-2.601c-1.431-1.431-2.873-3.456-3.204-4.5-.332-1.044-1.022-1.899-1.535-1.899s-.933-.69-.933-1.533c0-.844-1.125-3.754-2.5-6.467s-2.5-5.431-2.5-6.038-.675-1.78-1.5-2.605-1.5-2.537-1.5-3.804-1.082-4.75-2.404-7.739-2.559-6.758-2.75-8.375-.908-3.533-1.594-4.259c-.687-.726-1.544-2.526-1.904-4-.361-1.474-1.019-2.92-1.462-3.214s-.936-2.393-1.096-4.665c-.159-2.272-.471-3.951-.691-3.731-.221.219-.994-.382-1.718-1.336-.725-.953-1.332-1.469-1.349-1.144M409.818 450c-.285.825.089 3.244.832 5.376.742 2.131 1.35 4.944 1.35 6.25s.413 2.374.917 2.374 1.399 1.238 1.988 2.75l1.071 2.75-.52-3c-1.036-5.978-5.132-17.963-5.638-16.5m-137.188 4.25c-.331 1.238-.58 3.375-.553 4.75.045 2.256.127 2.305.838.5 1.522-3.864 2.114-7.5 1.221-7.5-.497 0-1.174 1.012-1.506 2.25m509.124 14.539c-.912 4.241-1.938 9.736-2.281 12.211-1.118 8.063-3.696 20.459-4.626 22.242-.5.959-1.114 3.767-1.364 6.241-.251 2.474-1.323 7.09-2.383 10.258-1.059 3.167-2.201 8.009-2.537 10.759l-.61 5 2.033-6c2.986-8.813 7.593-27.433 9.896-40 2.606-14.211 4.474-27.477 3.945-28.006-.229-.229-1.162 3.054-2.073 7.295m-511.379-5.364c-.619.673-1.132 2.315-1.141 3.649s-.779 5.343-1.712 8.908c-3.487 13.32-4.658 23.082-5.223 43.542-.777 28.1 1.736 55.019 6.999 74.976.581 2.2.976 4.337.879 4.75-.098.413.273.75.823.75 1.312 0 1.275-.525-.524-7.432-2.604-9.998-5.386-29.155-6.526-44.942-1.691-23.401.396-50.986 5.599-74.036 1.354-6.001 2.348-11.019 2.207-11.15s-.762.312-1.381.985M416 472.29c0 1.259.643 4.758 1.429 7.775 2.368 9.093 2.538 19.935.312 19.935-.693 0-1.822.9-2.509 2-.788 1.261-2.332 2-4.181 2-1.613 0-3.235.488-3.604 1.085-.435.704-5.108 1.02-13.309.899-15.319-.225-14.748-.273-15.051 1.266-1.069 5.434-1.062 19.396.011 21.986l1.251 3.02 38.075-.833c39.38-.862 65.238-.824 69.576.104 1.749.373 2.081.255 1.105-.395-1.13-.753-1.035-1.022.5-1.415 3.386-.867-15.219-.748-61.366.392-35.801.885-45.571.86-46.75-.118-2.239-1.858-2.157-21.521.093-22.384.87-.334 6.698-.607 12.951-.607 18.787 0 24.068-2.036 26.256-10.126 1.11-4.101.92-5.854-1.959-18.124-2.086-8.885-2.83-10.585-2.83-6.46m-367.954 8.96c.025.688.879 5.075 1.898 9.75 1.624 7.451 1.865 7.964 1.954 4.154.056-2.39-.605-6.778-1.469-9.75-1.496-5.146-2.482-6.865-2.383-4.154m749.614 11.046a2991 2991 0 0 0-2.262 13.204l-.498 3 1.398-2.5c1.38-2.469 4.448-22.588 3.577-23.459-.248-.247-1.244 4.142-2.215 9.755M52.425 503c1.001 5.898 7.623 29.638 9.684 34.712 1.825 4.496 1.917 4.575 1.511 1.288-.237-1.925-1.149-5.638-2.026-8.25-4.42-13.172-4.752-14.339-6.606-23.25-1.256-6.032-3.487-9.951-2.563-4.5m741.223 9c-.921 3.972-8.175 29.521-9.236 32.527-.614 1.741-.526 1.797.749.473 1.388-1.441 3.198-6.394 5.845-16a400 400 0 0 1 2.683-9.208c.794-2.59 1.292-6.19 1.107-8l-.337-3.292zm-28.673 26.565c-.536 1.411-.975 3.421-.975 4.466s-.637 3.379-1.417 5.185c-.779 1.806-2.129 4.927-3 6.935-.87 2.008-1.583 4.134-1.583 4.723 0 1.715-4.319 10.126-5.199 10.126-.441 0-.801 1.313-.801 2.917s-.416 3.066-.925 3.25c-.509.183-1.071 1.008-1.25 1.833s-.55 1.725-.825 2c-1.323 1.323-5 8.961-5 10.386 0 .888-.45 1.614-1 1.614s-1 .9-1 2-.477 2-1.059 2-.781.45-.441 1 .141 1-.441 1-1.059.702-1.059 1.559-.437 1.289-.971.959c-1.046-.647-2.472 3.652-1.84 5.548.478 1.434 15.215-27.225 20.604-40.066C760.84 556.354 768 537.536 768 536.544c0-1.636-2.191-.172-3.025 2.021M65.951 549.176c3.584 10.071 10.75 26.429 16.996 38.799 27.275 54.016 67.378 100.538 117.794 136.65 16.029 11.481 45.457 28.184 62.259 35.337 4.125 1.756 9.3 3.999 11.5 4.985s5.125 2.099 6.5 2.474c2.267.619 2.338.552.766-.718-.954-.77-1.442-1.694-1.084-2.052s-.575-.651-2.074-.651-2.476-.405-2.17-.9-1.115-.9-3.157-.9c-2.043 0-3.879-.495-4.081-1.1s-1.229-1.1-2.283-1.1-1.921-.337-1.925-.75c-.009-.847-4.808-3.25-6.492-3.25s-6.483-2.403-6.492-3.25c-.004-.413-.908-.75-2.008-.75s-2-.45-2-1-.702-1-1.559-1-1.281-.45-.941-1c.361-.583-.656-1-2.441-1-1.682 0-3.059-.45-3.059-1s-.927-1-2.059-1-1.781-.45-1.441-1-.309-1-1.441-1-2.059-.45-2.059-1-.675-1-1.5-1-1.5-.45-1.5-1-.624-1-1.386-1c-2.075 0-6.681-2.6-5.932-3.348.358-.359-.211-.666-1.265-.684-2.072-.034-5.692-2.359-4.903-3.149.482-.482-1.515-1.565-6.82-3.699-1.544-.621-2.53-1.577-2.191-2.124s-.245-.996-1.296-.996-3.249-1.237-4.886-2.75-3.841-3.271-4.898-3.907c-1.058-.636-1.81-1.649-1.673-2.25.138-.601-.677-1.093-1.809-1.093-1.302 0-1.797-.425-1.346-1.155.427-.69.276-.884-.376-.48-.599.37-2.223-.46-3.609-1.846-1.385-1.385-3.215-2.519-4.065-2.519s-1.545-.477-1.545-1.059.52-.738 1.155-.346c.721.446.882.274.43-.457-.398-.644-1.178-.889-1.734-.546-.556.344-1.675-.324-2.488-1.484S177.442 704 176.898 704s-2.014-1.013-3.267-2.25-3.925-3.645-5.939-5.349c-2.013-1.704-3.368-3.392-3.01-3.75s-.095-.651-1.007-.651-2.22-.9-2.907-2-1.816-2-2.509-2c-1.144 0-1.688-1.284-1.377-3.25.065-.413-.275-.75-.756-.75s-2.594-1.575-4.696-3.5-3.395-3.507-2.875-3.515-.18-.578-1.555-1.267c-1.375-.69-2.944-2.258-3.487-3.486-.543-1.227-1.39-2.232-1.883-2.232-1.343 0-8.647-9.086-7.63-9.493.275-.11-.113-.939-.863-1.842s-1.681-1.447-2.068-1.208c-.388.24-1.349-.499-2.137-1.641-1.264-1.832-6.145-8.125-8.939-11.524-.546-.664-.993-1.677-.993-2.25a1.05 1.05 0 0 0-1.051-1.042c-.578 0-1.697-1.545-2.486-3.433-.788-1.888-2.441-4.138-3.671-5s-1.799-1.574-1.265-1.582c.554-.009.517-.332-.087-.75-1.068-.741-12.094-16.852-13.927-20.351-.543-1.036-1.316-1.884-1.719-1.884-.402 0-.477-.663-.165-1.474s-.153-2.193-1.032-3.072c-.878-.878-1.597-2.266-1.597-3.084s-.45-1.21-1-.87-1.056.141-1.125-.441-.242-1.396-.385-1.809a300 300 0 0 1-.991-3c-.403-1.237-1.059-2.25-1.457-2.25s-1.265-1.8-1.924-4-1.55-4-1.98-4c-.808 0-4.407-7.605-5.677-12-.398-1.375-1.49-3.625-2.427-5-2.405-3.531-5.054-10.646-4.26-11.441.368-.367.114-1.01-.563-1.429-.677-.418-1.799-2.722-2.493-5.119-.694-2.398-1.802-4.539-2.462-4.759-.801-.267-.57 1.369.695 4.924m716.166 1.391c-15.269 43.431-39.466 85.577-70.004 121.933-7.663 9.123-29.058 30.971-39.113 39.942-20.205 18.027-51.522 40.007-72.5 50.885-7.819 4.055-8.472 4.64-5.191 4.658 1.621.009 2.548-.408 2.191-.985-.34-.55.335-1 1.5-1s1.89-.368 1.612-.818 1.158-1.414 3.191-2.141 3.922-1.597 4.197-1.932c.928-1.131 9.178-5.109 10.595-5.109.773 0 1.293-.492 1.155-1.093s.65-1.614 1.75-2.25 2.225-1.388 2.5-1.67 2.638-1.591 5.25-2.908 4.75-2.773 4.75-3.236.702-.843 1.559-.843 1.281-.45.941-1 .26-1 1.334-1 2.208-.667 2.521-1.483c.353-.919 1.217-1.235 2.271-.83 1.152.442 1.468.275.979-.517-.438-.709-.086-1.17.895-1.17.89 0 1.34-.45 1-1s-.025-1 .7-1c.726 0 1.881-.9 2.568-2 .75-1.201 2.344-2.006 3.99-2.015 2.138-.012 2.411-.229 1.242-.985-1.282-.828-1.246-.972.25-.985.962-.008 1.75-.465 1.75-1.015s.675-1 1.5-1 1.5-.45 1.5-1 .702-1 1.559-1 1.281-.45.941-1 .084-1 .941-1 1.447-.526 1.309-1.168c-.137-.643.672-1.655 1.799-2.25s3.783-2.769 5.903-4.832 4.487-3.75 5.26-3.75c.774 0 1.128-.45.788-1s.159-1 1.108-1 1.481-.244 1.183-.542c-.672-.672 3.957-5.411 11.591-11.865 3.192-2.698 6.28-5.952 6.863-7.23.582-1.279 1.89-2.589 2.907-2.911 1.016-.323 1.848-1.122 1.848-1.776 0-.655 1.462-2.565 3.25-4.246 4.311-4.055 8.772-9.135 11.791-13.428 1.352-1.923 3.472-4.413 4.709-5.532s2.25-2.574 2.25-3.234 1.519-2.764 3.376-4.676c1.856-1.911 3.131-3.72 2.833-4.018s-.07-.542.508-.542c.577 0 1.314-.788 1.637-1.75.875-2.604 2.819-5.37 5.861-8.338 1.493-1.457 2.431-2.933 2.083-3.28-.347-.348-.159-.632.419-.632.855 0 2.754-4.33 2.005-4.571-.122-.04.453-.812 1.278-1.716 2.522-2.764 3.404-4.091 5.979-8.993 1.364-2.596 2.772-4.72 3.129-4.72s1.25-1.462 1.984-3.25c.735-1.788 3.209-6.625 5.498-10.75s4.685-9.133 5.324-11.129 2.051-4.434 3.139-5.419 2.253-3.513 2.59-5.621c.337-2.107 1.005-3.831 1.485-3.831s.872-.635.872-1.41c0-.776 1.35-4.263 2.999-7.75s3-7.252 3-8.367c.001-1.116.705-3.034 1.566-4.263s1.424-3.436 1.25-4.906c-.294-2.493-.407-2.408-1.698 1.263M64 593.762c0 1.152.58 2.69 1.289 3.417 1.993 2.042 5.648 9.551 4.977 10.222-.33.329-.147.599.405.599s2.265 2.587 3.805 5.75 3.13 5.975 3.531 6.25 1.952 2.922 3.445 5.882c2.578 5.109 3.374 6.321 6.298 9.581.688.767 1.25 2.101 1.25 2.966 0 .864.406 1.571.902 1.571s1.373 1.35 1.948 3c.615 1.764 1.754 3 2.765 3 .945 0 1.437.281 1.094.624s.28 1.357 1.386 2.251c1.711 1.387 2.433 2.982 2.828 6.258.043.349.938.859 1.991 1.134 1.053.276 2.695 2.01 3.649 3.854s2.917 4.485 4.362 5.867c4.063 3.883 7.105 8.154 6.502 9.13-.3.485-.036.882.585.882.622 0 1.806.675 2.631 1.5s1.245 1.5.934 1.5 2.123 2.542 5.408 5.648c3.286 3.107 6.239 6.482 6.562 7.5.323 1.019 1.259 1.852 2.079 1.852s1.214.45.874 1 .084 1 .941 1c1.404 0 2.006 1.167 1.677 3.25-.065.413.809.75 1.941.75s1.781.45 1.441 1 .084 1 .941 1 1.559.45 1.559 1 .675 1 1.5 1c1.326 0 1.591.459 1.468 2.538-.017.296 1.445 1.749 3.25 3.23s4.01 3.488 4.899 4.462 2.268 1.77 3.063 1.77c1.716 0 6.82 5.093 6.82 6.805 0 .657.51 1.195 1.133 1.195s1.865.788 2.76 1.75c1.565 1.682 3.731 3.09 9.107 5.921 1.375.724 2.13 1.319 1.679 1.323-.452.003-.147.681.678 1.506s1.982 1.5 2.572 1.5c.589 0 1.071.45 1.071 1s.75 1 1.667 1c.916 0 1.355.311.975.691-.38.381.782 1.168 2.583 1.75s3.05 1.403 2.775 1.823.625 1.353 2 2.073c7.398 3.872 10.275 6.055 9.286 7.044-.341.34.671.619 2.247.619 3.549 0 3.61.055-10.533-9.574-22.954-15.628-42.296-32.262-63.283-54.426-15.068-15.913-15.278-16.158-26.546-31-14.633-19.277-24.781-35.101-35.59-55.5C64.055 591.071 64 590.995 64 593.762m208.116 10.488c-.064 2.063.334 3.75.884 3.75s1 1.593 1 3.54.909 5.322 2.02 7.5c1.112 2.178 1.779 3.96 1.483 3.96s.576 2.195 1.935 4.878c1.36 2.683 2.192 5.158 1.85 5.5s-.059.622.629.622 1.015-.562.728-1.25c-.811-1.946-9.351-28.007-9.912-30.25-.293-1.171-.549-.445-.617 1.75m460.367 4.722c.6.971-1.729 5.248-4.338 7.968-.76.791-1.822 2.704-2.361 4.25s-1.386 2.81-1.882 2.81-.902.702-.902 1.559-.461 1.274-1.025.926c-.563-.349-.965-.263-.892.191.305 1.889-1.414 5.324-2.664 5.324-.742 0-1.911 1.013-2.598 2.25-1.243 2.237-1.457 2.836-1.696 4.75-.069.55-.8 1-1.625 1s-1.396.337-1.269.75c.412 1.338-4.883 8.263-5.73 7.495-.452-.41-.498-.182-.102.505.395.688.242 1.25-.34 1.25s-1.059.642-1.059 1.427c0 .786-1.11 2.301-2.466 3.368s-2.181 2.224-1.833 2.572-.193.633-1.201.633-1.549.284-1.202.632c.348.347-.75 1.922-2.439 3.5-1.689 1.577-2.818 2.868-2.51 2.868s-.544 1.105-1.894 2.455-2.455 2.925-2.455 3.5-.9 1.045-2 1.045c-1.145 0-2 .667-2 1.559 0 .924-.47 1.268-1.155.846-.715-.443-.883-.275-.44.44.427.691.063 1.155-.905 1.155-.89 0-1.393.363-1.119.808.275.444-.599 1.632-1.941 2.64s-2.44 2.444-2.44 3.192-.645 1.36-1.433 1.36-1.718.9-2.067 2-1.294 2-2.099 2-1.722.672-2.037 1.494c-.316.822-1.046 1.203-1.623.846-.578-.357-.799-.242-.492.255.307.498-.823 2.03-2.513 3.405s-4.726 4.188-6.75 6.25-3.972 3.75-4.33 3.75-2.563 1.8-4.899 4-4.795 4-5.466 4-1.702.9-2.291 2-1.955 2-3.035 2-1.852.492-1.715 1.093c.138.601-.625 1.614-1.695 2.25s-2.843 1.945-3.939 2.907-2.883 1.75-3.971 1.75-1.7.279-1.359.619c.901.902-1.865 3.381-3.774 3.381-.896 0-1.352.45-1.012 1s-.309 1-1.441 1-2.059.45-2.059 1-.567 1-1.259 1c-.693 0-1.839.927-2.546 2.06-1.181 1.891-1.124 1.972.7.996 2.355-1.26 20.819-13.973 25.686-17.685 1.87-1.427 3.109-3.063 2.755-3.637-.374-.604-.162-.745.503-.333 2.72 1.681 40.066-33.223 56.6-52.899C713.2 642.936 735 611.967 735 608.566c0-.311-.702-.566-1.559-.566s-1.289.437-.958.972M282 636.066c0 .586.481 1.965 1.07 3.065.588 1.099 1.253 2.949 1.476 4.11s.81 2.37 1.303 2.686 2.586 3.948 4.651 8.073 4.26 7.831 4.877 8.235c.618.404.716.741.218.75-.498.008-.195.803.672 1.765s1.886 2.987 2.263 4.5c.378 1.513 1.095 2.75 1.593 2.75 1.238 0 4.897 6.158 4.266 7.179-.279.452.082.824.802.828s2.433 1.691 3.808 3.75 3.066 4.342 3.759 5.074c.693.731 1.005 1.744.692 2.25-.312.505-.122.919.424.919.545 0 1.279.907 1.631 2.015.351 1.108 1.055 1.757 1.563 1.443s1.448.58 2.088 1.986 1.737 2.556 2.437 2.556 1.558.9 1.907 2 1.207 2 1.907 2 1.775 1.103 2.389 2.452c.615 1.348 2.473 3.153 4.131 4.01 1.657.857 4.845 3.354 7.083 5.548s4.31 3.99 4.602 3.99c1.073 0 3.273 2.781 2.674 3.381-.341.34.382.619 1.606.619 1.229 0 1.949.448 1.608 1-.34.55.309 1 1.441 1s2.059.45 2.059 1 .675 1 1.5 1 1.5.45 1.5 1 .675 1 1.5 1 1.5.45 1.5 1 .576 1 1.279 1c.704 0 1.928.9 2.721 2s2.382 2 3.532 2 3.057.9 4.238 2c1.18 1.1 2.84 2 3.688 2s1.542.45 1.542 1 1.012.99 2.25.978c1.656-.016.798-.844-3.25-3.136-31.154-17.637-53.812-38.077-70.218-63.342-7.684-11.834-15.17-25.943-19.497-36.75-1.411-3.522-3.285-5.054-3.285-2.684m386.628 11.527c1.58 1.299 4.331 3.385 6.115 4.634 4.433 3.107 4.087 6.671-1.202 12.4-.573.621-1.716 2.138-2.541 3.373s-1.95 2.752-2.5 3.373c-.55.62-3.691 4.502-6.98 8.627-5.713 7.166-26.52 29.4-26.52 28.339 0-.28-2.812 1.916-6.25 4.878-20.889 18.003-45.96 32.29-71.75 40.889-9.158 3.054-10.748 3.841-7.809 3.864 2.03.017 3.969-.42 4.309-.97s2.166-1 4.059-1 3.441-.45 3.441-1 .681-1 1.514-1c.832 0 2.295-.413 3.25-.918 4.252-2.249 11.346-5.082 12.725-5.082.831 0 1.511-.45 1.511-1s.675-1 1.5-1 1.5-.45 1.5-1 .707-1 1.571-1c.865 0 2.269-.697 3.121-1.549s2.845-1.808 4.429-2.125c1.583-.317 2.879-.899 2.879-1.294s2.138-1.795 4.75-3.111 5.081-2.85 5.485-3.408.741-.61.75-.117c.008.493 1.119-.295 2.467-1.75s3.149-2.646 4-2.646c.852 0 1.548-.45 1.548-1s.702-1 1.559-1 1.281-.45.941-1-.123-1 .483-1c.605 0 2.067-.9 3.247-2 1.181-1.1 2.737-2 3.459-2 .721 0 1.311-.45 1.311-1s.75-1 1.667-1c.916 0 1.388-.279 1.047-.619-.901-.902 1.865-3.381 3.774-3.381.896 0 1.405-.363 1.131-.808-.275-.444.68-1.681 2.121-2.75s3.553-2.864 4.693-3.99 2.859-2.35 3.82-2.719 1.747-1.149 1.747-1.735c0-1.556 7.264-8.556 8.472-8.165.565.184.712.018.326-.369-.387-.386-.162-1.268.5-1.961.661-.692 1.846-2.189 2.634-3.327s1.877-1.794 2.42-1.458c.58.358.724-.076.349-1.054-.435-1.134-.117-1.664.997-1.664.899 0 1.383-.252 1.075-.561-.309-.308.404-1.572 1.583-2.808s2.819-3.285 3.644-4.554c2.177-3.348 8.276-11.492 9.044-12.077 1.449-1.103 3.217-5.512 3.376-8.419.193-3.541-1.383-5.581-4.313-5.581-1.12 0-2.489-.845-3.042-1.878s-2.198-2.105-3.656-2.384l-2.652-.507zm-7.497 1.899c-1.303 1.914-2.835 3.191-3.404 2.839-.57-.352-.765-.201-.433.335.817 1.322-3.082 7.583-4.267 6.851-.518-.32-1.601.67-2.406 2.2s-2.286 3.508-3.292 4.393c-1.006.886-3.394 3.473-5.306 5.75-1.913 2.277-3.825 4.14-4.248 4.14s-2.682 1.8-5.018 4-4.886 4-5.668 4-1.13.292-.773.649c.947.948-4.502 5.348-6.625 5.35-.995 0-1.531.451-1.191 1.001s-.11 1-1 1-1.387.374-1.104.831-1.021 1.433-2.896 2.169-3.131 1.788-2.791 2.339c.362.585-.038.749-.962.394-.91-.349-1.815.003-2.133.83-.303.79-1.259 1.437-2.124 1.437s-2.54.9-3.72 2-2.737 2-3.459 2c-.721 0-1.311.45-1.311 1s-1.125 1-2.5 1-2.5.45-2.5 1-.585 1-1.301 1c-1.839 0-6.682 2.352-6.691 3.25-.004.413-.683.75-1.508.75s-1.5.45-1.5 1-1.548 1-3.441 1-3.719.45-4.059 1-1.743 1-3.118 1-2.254.399-1.952.886c.301.488-.46 1.193-1.691 1.568-1.232.374-1.752.888-1.156 1.141 1.711.727 21.89-7.775 33.417-14.08 18.158-9.933 31.035-19.654 45.203-34.126 8.582-8.766 17.815-19.685 19.833-23.456 1.753-3.276-.399-2.121-2.905 1.559M402.5 692.54c17.349 14.631 32.555 23.877 47.788 29.058 15.992 5.439 27.13 6.851 54.212 6.871 22.098.016 26.335-.248 36.5-2.274 13.714-2.734 23-5.207 23-6.126 0-.966-6.916-.015-7.568 1.041-.303.49-2.072.89-3.932.89s-3.66.45-4 1-3.404 1.007-6.809 1.015c-3.813.01-5.673.344-4.843.87 1.883 1.193-13.051 2.372-31.348 2.475-19.715.11-42.176-2.555-48.618-5.769-1.754-.875-4.583-1.593-6.286-1.595s-4.569-.902-6.37-2-3.965-1.996-4.809-1.996-1.257-.45-.917-1c.347-.562-.449-1-1.819-1-1.34 0-2.982-.658-3.649-1.461-.667-.804-2.184-1.768-3.372-2.141-2.945-.927-8.774-4.951-8.12-5.605.291-.291-.836-.802-2.505-1.136S416 702.44 416 701.694s-1.238-1.994-2.75-2.774c-1.512-.781-4.509-3.107-6.659-5.169-2.15-2.063-4.625-3.749-5.5-3.746-1.086.003-.638.808 1.409 2.535m201.561 45.987c-1.892 1.335-3.651 2.216-3.91 1.957s-1.1.426-1.868 1.522-2.032 1.994-2.809 1.994-3.016.9-4.974 2-4.249 2-5.089 2-1.251.45-.911 1-.084 1-.941 1-1.559.34-1.559.756c0 .791-2.944 2.177-9.25 4.352-2.062.712-3.75 1.581-3.75 1.932 0 .946-4.796 2.96-7.047 2.96-1.074 0-1.953.45-1.953 1s-1.35 1-3 1-3 .47-3 1.044-.562.971-1.25.881c-2.656-.345-3.75.134-3.75 1.642 0 1.823 1.31 1.516 10.477-2.455 17.45-7.56 50.523-25.025 50.523-26.679 0-1.105-2.816-.112-5.939 2.094m-219.567 6.482c-.342.554.491.991 1.888.991 1.375 0 2.778.45 3.118 1s1.341 1 2.226 1c2.157 0 1.387-.637-2.974-2.459-2.299-.961-3.871-1.157-4.258-.532m9.506 3.924c0 .587.873 1.067 1.941 1.067s2.219.45 2.559 1 1.829.982 3.309.961l2.691-.039-3.065-1.335c-5.299-2.308-7.435-2.783-7.435-1.654m-185 3.54c0 1.06 2.748 3.527 3.929 3.527.589 0 1.073.337 1.075.75s2.441 1.864 5.42 3.224 5.201 2.824 4.937 3.25.673.776 2.08.776 2.559.45 2.559 1 .9 1 2 1 2 .45 2 1 .815 1 1.811 1c.997 0 2.778.9 3.959 2 1.18 1.1 2.528 2 2.996 2s3.973 1.581 7.791 3.512 8.61 3.969 10.648 4.527c2.038.557 4.368 1.677 5.179 2.487.81.811 2.743 1.442 4.295 1.403 3.129-.078 4.366.573-15.179-7.989-8.24-3.609-32.715-16.435-41.75-21.878-2.062-1.243-3.75-1.958-3.75-1.589M406.5 754c.995 1.1 3.02 2 4.5 2s5.347.889 8.595 1.975 7.367 1.987 9.155 2c1.788.014 3.25.437 3.25.94s2.883 1.065 6.408 1.25c7.365.385 7.9-.616.854-1.599-6.126-.855-20.101-4.218-27.677-6.659-7.302-2.354-7.299-2.354-5.085.093m125.076 6.582c-14.5 3.053-36.63 4.616-55.076 3.889-11.182-.441-14.555-.309-13.25.518 3.083 1.956 64.75.079 64.75-1.97 0-.45 1.913-1.074 4.25-1.387 10.379-1.389 12.75-1.898 12.75-2.737 0-1.122-.199-1.097-13.424 1.687M446 762.779c0 1.221 12.63 2.089 14.352.986.632-.404-.252-.741-1.962-.75-1.711-.008-5.199-.301-7.75-.651-2.979-.408-4.64-.26-4.64.415M544.5 767c-.34.55-1.69 1-3 1s-2.605.361-2.878.802c-.272.441-2.774 1.422-5.559 2.181-2.784.758-5.063 1.747-5.063 2.198s-1.548.819-3.441.819-3.719.45-4.059 1-1.716 1-3.059 1-2.441.354-2.441.786-.788.833-1.75.89c-4.356.262-14.113 2.709-17.75 4.452l-4 1.918 3.746-.568c11.558-1.75 52.754-14.711 52.754-16.597 0-1.208-2.737-1.115-3.5.119m-260.329 1.504c.277.278 3.815 1.631 7.86 3.007 4.935 1.678 7.688 2.17 8.363 1.495s.137-1.006-1.635-1.006c-1.453 0-2.919-.45-3.259-1s-1.915-1-3.5-1-3.16-.45-3.5-1-1.566-1-2.726-1-1.88.227-1.603.504M583.5 771.82c-3.256 1.968-19.646 9.044-34 14.68-4.95 1.943-7.538 3.3-5.75 3.016 6.562-1.042 9.25-1.76 9.25-2.469 0-1.097 4.778-3.047 7.464-3.047 1.303 0 2.519-.359 2.703-.797.384-.92 9.305-5.203 10.836-5.203.563 0 1.806-.412 2.761-.917.955-.504 3.198-1.458 4.986-2.121s3.25-1.6 3.25-2.083 1.462-.886 3.25-.894c2.466-.012 2.888-.249 1.75-.985-2.112-1.365-3.088-1.242-6.5.82m-276 4.661c9.689 3.16 13.922 4.011 13.066 2.626-.376-.609-2.007-1.107-3.625-1.107s-2.941-.348-2.941-.773c0-.817-9.531-3.296-12.029-3.128-.809.054 1.679 1.126 5.529 2.382m18.5 4.939c8.863 2.445 10 2.627 10 1.599 0-.56-1.125-1.019-2.5-1.019s-2.5-.45-2.5-1-2.137-.96-4.75-.911l-4.75.09zm-52.973 3.33c.051 1.367 8.898 5.25 11.962 5.25 1.656 0 3.011.45 3.011 1s1.35 1 3 1 3 .45 3 1 1.377 1 3.059 1c1.785 0 2.802.417 2.441 1-.378.611 1.058.974 3.691.934 3.809-.058 2.685-.622-9.691-4.862-7.7-2.638-15.267-5.309-16.815-5.934-3.319-1.342-3.694-1.381-3.658-.388m68.473.25c4.437 1.129 6.698 1.129 6 0-.34-.55-2.504-.947-4.809-.882-3.959.112-4.025.161-1.191.882m138.5-.116c0 .905-6.434 1.682-22.75 2.75-5.087.332-9.25.915-9.25 1.294s-4.163.78-9.25.892-11.95.431-15.25.709c-3.3.279-14.775.055-25.5-.497-18.303-.941-27.083-1.764-41.5-3.889-3.3-.486-6.354-.566-6.786-.177-.915.822 17.879 3.632 33.786 5.051 14.399 1.285 48.961 1.251 63.5-.062 11.274-1.019 43.096-5.768 43.917-6.556.229-.219-2.134-.399-5.25-.399s-5.667.398-5.667.884m51 7.735c-18.965 6.12-45.923 11.959-69 14.945-16.791 2.172-60.714 3.033-78.049 1.529-17.373-1.507-39.107-4.636-50.269-7.237-4.849-1.13-9.104-1.767-9.456-1.416-.351.352.354.899 1.568 1.216 1.213.318 2.206.935 2.206 1.372s2.587 1.046 5.75 1.355c13.876 1.352 16.867 1.764 18.75 2.587 1.1.48 5.6 1.164 10 1.521 4.4.356 10.925 1.089 14.5 1.628 3.575.54 18.2 1.233 32.5 1.54 25.932.556 27.911.441 57.5-3.342 6.875-.879 14.637-1.803 17.249-2.054 2.613-.251 4.499-.863 4.191-1.359-.31-.503 2.35-.904 6.001-.904 3.706 0 6.559-.435 6.559-1 0-.55.873-1 1.941-1s2.219-.45 2.559-1 1.695-1 3.01-1c1.316 0 5.002-.726 8.191-1.612s7.036-1.838 8.549-2.114 2.75-.9 2.75-1.387c0-.488 1.548-.887 3.441-.887s3.719-.45 4.059-1 1.491-1 2.559-1 1.941-.45 1.941-1c0-1.275-.073-1.262-9 1.619m-223 4.138c0 1.197 7.595 3.25 11.734 3.172 3.468-.066 3.251-.221-2.734-1.965-7.18-2.092-9-2.336-9-1.207"/><path fill="#0b99d4" fill-rule="evenodd" d="M388.5 31.97c-44.018 3.003-83.345 12.428-127.5 30.556-8.437 3.463-38.449 18.706-44.672 22.687-42.678 27.305-65.03 45.845-92.938 77.089C80.807 209.976 50.936 267.126 36 329.5 18.782 401.4 22.158 475.791 45.824 546c13.526 40.126 32.537 75.684 59.347 111 11.268 14.842 11.478 15.087 26.546 31 34.475 36.408 67.889 61 112.783 83.007 40.675 19.939 79.328 31.128 128.5 37.197 16.143 1.993 71.972 1.656 88.5-.533 73.649-9.756 139.179-37.1 194.5-81.162 14.931-11.893 19.812-16.287 35.526-31.991 42.619-42.59 74.232-94.166 93.487-152.518 7.654-23.196 12.927-46.835 16.682-74.776 2.195-16.342 2.504-73.161.485-89.224-6.114-48.633-18.525-90.514-39.083-131.886-3.204-6.448-7.012-13.603-8.461-15.899s-2.636-4.4-2.636-4.676c0-.596-4.876-8.342-13.872-22.039-5.784-8.806-13.919-19.617-25.96-34.5-10.727-13.259-38.347-40.071-54.168-52.585-34.911-27.612-74.534-49.683-113.164-63.036-29.985-10.364-56.719-16.458-87.336-19.907-15.999-1.803-52.842-2.605-69-1.502m5.5 17.621c-25.268 2.197-44.478 4.748-55.5 7.37-2.2.523-7.15 1.693-11 2.599-88.93 20.939-169.163 76.789-221.146 153.94-29.956 44.459-49.879 94.88-58.283 147.5-3.689 23.104-4.516 34.237-4.492 60.5.025 28.049 1.448 44.106 6.028 68 18.324 95.603 71.207 177.875 151.134 235.125 16.029 11.481 45.457 28.184 62.259 35.337 4.125 1.756 9.3 4.005 11.5 4.997s10.75 4.137 19 6.988c27.847 9.626 61.769 16.743 91.293 19.156 18.077 1.477 60.551.607 75.983-1.556 63.093-8.846 114.377-28.479 165.224-63.254 31.597-21.61 65.593-54.717 88.608-86.293 14.882-20.417 24.317-36.225 35.301-59.144 17.699-36.928 27.646-70.753 33.776-114.856 2.186-15.726 2.537-71.094.546-86-8.809-65.948-28.477-118.755-63.13-169.5-16.672-24.414-44.455-55.488-63.492-71.011a515 515 0 0 1-8.5-7.092c-5.257-4.52-25.559-19.276-33.109-24.065-33.514-21.255-68.39-36.75-104.158-46.277-30.889-8.227-58.011-11.977-90.342-12.49-12.65-.201-25.025-.189-27.5.026m-54.396 13.571c-1.043.605-3.293 2.697-5 4.648-8.574 9.797-30.496 23.952-45.333 29.271-15.453 5.54-15.263 5.078-7.536 18.305 1.619 2.771 1.57 7.922-.136 14.114-1.227 4.451-15.416 43.513-19.072 52.5-.783 1.925-3.207 8.45-5.388 14.5s-6.896 18.875-10.479 28.5a16554 16554 0 0 0-17.002 46c-5.769 15.675-15.967 42.675-22.663 60s-16.254 42.075-21.24 55a31963 31963 0 0 1-11.973 31c-1.6 4.125-4.487 11.775-6.417 17s-4.103 10.85-4.828 12.5-3.431 8.625-6.012 15.5c-10.121 26.957-16.963 37.544-27.363 42.341-4.09 1.886-6.809 2.192-22.162 2.49-10.077.196-18.03.78-18.75 1.377-.853.708-1.25 4.337-1.25 11.439 0 12.628-.4 12.338 15.5 11.263 19.468-1.316 69.169-1.67 99.412-.709 16.176.514 30.464.67 31.75.348 2.264-.568 2.338-.919 2.338-11.009 0-7.239-.382-10.669-1.25-11.231-.687-.445-10.925-1.042-22.75-1.328-24.896-.6-28.013-1.435-31.423-8.421-1.751-3.586-1.818-4.661-.754-12 1.426-9.828 9.69-35.307 25.156-77.56 2.114-5.775 7.09-19.5 11.058-30.5s7.843-21.012 8.611-22.25l1.398-2.25h54.977c30.237 0 54.977.275 54.977.611s-4.398 5.217-9.774 10.847c-26.125 27.364-45.797 63.626-55.099 101.569-14.798 60.36-8.109 124.771 18.95 182.473 19.217 40.98 50.605 72.555 92.423 92.973 49.903 24.365 120.227 29.205 173.609 11.948 38.878-12.569 78.177-40.316 105.404-74.421 3.293-4.125 6.437-8.007 6.987-8.627s1.675-2.138 2.5-3.373 1.968-2.752 2.541-3.373c2.585-2.799 4.454-6.239 4.402-8.1-.051-1.834-7.815-8.773-11.321-10.118-.733-.282-2.392 1.15-3.818 3.296-6.258 9.419-23.112 27.204-34.304 36.199-25.13 20.196-52.806 33.155-85 39.802-12.077 2.493-14.811 2.686-38.5 2.72-22.468.032-26.814-.228-36.553-2.187-28.366-5.707-49.719-17.609-72.802-40.578-38.16-37.972-61.275-88.1-68.236-147.975-2.095-18.026-1.439-46.314 1.512-65.186 6.138-39.25 19.793-72.614 40.109-98 5.33-6.66 12.718-14.108 13.327-13.435.754.833 15.514 46.354 23.324 71.935 14.228 46.6 16.817 57.557 15.099 63.908-2.178 8.053-7.483 10.092-26.247 10.092-6.253 0-12.081.273-12.951.607-2.249.863-2.332 20.526-.094 22.383 1.177.977 11.154.997 47.75.096 35.221-.868 54.735-.856 81.762.047 19.525.653 36.787 1.129 38.359 1.059 5.046-.227 5.641-1.522 5.641-12.279 0-8.708-.223-9.962-1.934-10.878-1.064-.569-8.152-1.046-15.75-1.059-7.599-.014-15.791-.48-18.204-1.037-13.128-3.026-24.752-12.693-31.791-26.439-6.345-12.388-24.016-60.691-44.002-120.272-7.748-23.099-9.538-29.449-8.485-30.111 1.931-1.214 19.41-5.006 28.166-6.11 4.125-.52 13.35-.956 20.5-.97 45.052-.087 81.878 17.267 115.398 54.38 16.083 17.807 31.277 42.715 42.561 69.774 1.535 3.68 3.353 6.907 4.04 7.17 2.134.819 13.525-2.536 14.444-4.255.547-1.022-.554-11.5-2.957-28.118-5.526-38.227-10.983-81.917-11.676-93.488-.845-14.101-1.056-14.5-7.663-14.5-3.125 0-5.821.527-6.396 1.25-.547.688-2.242 5.75-3.767 11.25s-3.212 10.563-3.75 11.25c-1.552 1.983-4.81 1.438-10.734-1.794-60.923-33.237-119.387-42.3-183.521-28.45-2.753.594-3.12.358-4.153-2.677-.623-1.831-10.679-32.354-22.348-67.829-21.789-66.244-29.992-91.14-46.624-141.5-5.268-15.95-10.272-29.787-11.121-30.75-1.772-2.01-2.965-2.135-5.629-.588M304.69 138.79c-2.366 2.614-3.978 6.824-34.169 89.21-6.953 18.975-14.237 38.775-16.187 44C247.236 291.022 234 329.134 234 330.548c0 1.255 9.088 1.452 66.889 1.452 62.262 0 67.03-.121 68.925-1.75 2.03-1.745 2.012-1.821-5.955-26.25a13622 13622 0 0 1-25.844-80c-8.191-25.59-16.504-51.398-21.745-67.5-6.386-19.625-7.838-21.845-11.58-17.71"/></svg>