<svg xmlns="http://www.w3.org/2000/svg" width="84" height="86"><path fill="#c0e4f4" fill-rule="evenodd" d="M36 6.5c0 .275.225.5.5.5s.5-.225.5-.5-.225-.5-.5-.5-.5.225-.5.5m12 0c0 .275.225.5.5.5s.5-.225.5-.5-.225-.5-.5-.5-.5.225-.5.5m-16 1c0 .275.225.5.5.5s.5-.225.5-.5-.225-.5-.5-.5-.5.225-.5.5m-3 1c0 .275.225.5.5.5s.5-.225.5-.5-.225-.5-.5-.5-.5.225-.5.5m7 .559c0 .582.45.781 1 .441s1-.816 1-1.059S37.55 8 37 8s-1 .477-1 1.059m12.333-.392a.95.95 0 0 0 1.334 0C50.033 8.3 49.733 8 49 8s-1.033.3-.667.667M32 9.5c0 .275.225.5.5.5s.5-.225.5-.5-.225-.5-.5-.5-.5.225-.5.5m2 0c0 .275.225.5.5.5s.5-.225.5-.5-.225-.5-.5-.5-.5.225-.5.5m18.333.167a.95.95 0 0 0 1.334 0C54.033 9.3 53.733 9 53 9s-1.033.3-.667.667M29 10.5c0 .275.225.5.5.5s.5-.225.5-.5-.225-.5-.5-.5-.5.225-.5.5m26 0c0 .275.225.5.5.5s.5-.225.5-.5-.225-.5-.5-.5-.5.225-.5.5m-32 1c0 .275.225.5.5.5s.5-.225.5-.5-.225-.5-.5-.5-.5.225-.5.5m4 0c0 .275.225.5.5.5s.5-.225.5-.5-.225-.5-.5-.5-.5.225-.5.5m5 0c0 .275.225.5.5.5s.5-.225.5-.5-.225-.5-.5-.5-.5.225-.5.5m5 .5c0 .733.3 1.033.667.667a.95.95 0 0 0 0-1.334C37.3 10.967 37 11.267 37 12m-12 .5c0 .275.225.5.5.5s.5-.225.5-.5-.225-.5-.5-.5-.5.225-.5.5m38 0c0 .275.225.5.5.5s.5-.225.5-.5-.225-.5-.5-.5-.5.225-.5.5m-43 1c0 .275.225.5.5.5s.5-.225.5-.5-.225-.5-.5-.5-.5.225-.5.5m41 0c0 .275.225.5.5.5s.5-.225.5-.5-.225-.5-.5-.5-.5.225-.5.5m-39 1c0 .275.225.5.5.5s.5-.225.5-.5-.225-.5-.5-.5-.5.225-.5.5m16 .5c0 .733.3 1.033.667.667a.95.95 0 0 0 0-1.334C38.3 13.967 38 14.267 38 15m26 .378c0 .207.787.995 1.75 1.75 1.586 1.243 1.621 1.208.378-.378C64.821 15.084 64 14.555 64 15.378M68.5 17c.995 1.1 2.035 2 2.31 2s-.315-.9-1.31-2-2.035-2-2.31-2 .315.9 1.31 2M29 16.5c0 .275.225.5.5.5s.5-.225.5-.5-.225-.5-.5-.5-.5.225-.5.5m3.564.793c.376.986.935 1.541 1.243 1.233s.001-1.114-.683-1.793c-.988-.98-1.102-.865-.56.56M16.872 18.75c-1.243 1.586-1.208 1.621.378.378C18.916 17.821 19.445 17 18.622 17c-.207 0-.995.788-1.75 1.75M39 18c0 .733.3 1.033.667.667a.95.95 0 0 0 0-1.334C39.3 16.967 39 17.267 39 18m-8 .5c0 .275.225.5.5.5s.5-.225.5-.5-.225-.5-.5-.5-.5.225-.5.5m-3 1c0 .275.225.5.5.5s.5-.225.5-.5-.225-.5-.5-.5-.5.225-.5.5m40-.122c0 .207.787.995 1.75 1.75 1.586 1.243 1.621 1.208.378-.378C68.821 19.084 68 18.555 68 19.378M30 21.5c0 .275.225.5.5.5s.5-.225.5-.5-.225-.5-.5-.5-.5.225-.5.5m4 0c0 .275.225.5.5.5s.5-.225.5-.5-.225-.5-.5-.5-.5.225-.5.5m6 0c0 .275.225.5.5.5s.5-.225.5-.5-.225-.5-.5-.5-.5.225-.5.5m-13 1c0 .275.225.5.5.5s.5-.225.5-.5-.225-.5-.5-.5-.5.225-.5.5m46 0c0 .275.225.5.5.5s.5-.225.5-.5-.225-.5-.5-.5-.5.225-.5.5m-60 1c0 .275.225.5.5.5s.5-.225.5-.5-.225-.5-.5-.5-.5.225-.5.5m28 .5c0 .733.3 1.033.667.667a.95.95 0 0 0 0-1.334C41.3 22.967 41 23.267 41 24m-12 .5c0 .275.225.5.5.5s.5-.225.5-.5-.225-.5-.5-.5-.5.225-.5.5m6 0c0 .275.225.5.5.5s.5-.225.5-.5-.225-.5-.5-.5-.5.225-.5.5m37 0c0 .275.225.5.5.5s.5-.225.5-.5-.225-.5-.5-.5-.5.225-.5.5m-46 1c0 .275.225.5.5.5s.5-.225.5-.5-.225-.5-.5-.5-.5.225-.5.5m47 1c0 .275.225.5.5.5s.5-.225.5-.5-.225-.5-.5-.5-.5.225-.5.5m-48 1c0 .275.225.5.5.5s.5-.225.5-.5-.225-.5-.5-.5-.5.225-.5.5m3 0c0 .275.225.5.5.5s.5-.225.5-.5-.225-.5-.5-.5-.5.225-.5.5m8 0c0 .275.225.5.5.5s.5-.225.5-.5-.225-.5-.5-.5-.5.225-.5.5m6 0c0 .275.225.5.5.5s.5-.225.5-.5-.225-.5-.5-.5-.5.225-.5.5m32 1c0 .275.225.5.5.5s.5-.225.5-.5-.225-.5-.5-.5-.5.225-.5.5m-47 1c0 .275.225.5.5.5s.5-.225.5-.5-.225-.5-.5-.5-.5.225-.5.5m-3 1c0 .275.225.5.5.5s.5-.225.5-.5-.225-.5-.5-.5-.5.225-.5.5m13 0c0 .275.225.5.5.5s.5-.225.5-.5-.225-.5-.5-.5-.5.225-.5.5m6 0c0 .275.225.5.5.5s.5-.225.5-.5-.225-.5-.5-.5-.5.225-.5.5m32 0c0 .275.225.5.5.5s.5-.225.5-.5-.225-.5-.5-.5-.5.225-.5.5m2 0c0 .275.225.5.5.5s.5-.225.5-.5-.225-.5-.5-.5-.5.225-.5.5m-70 1c0 .275.225.5.5.5s.5-.225.5-.5-.225-.5-.5-.5-.5.225-.5.5m2 0c0 .275.225.5.5.5s.5-.225.5-.5-.225-.5-.5-.5-.5.225-.5.5m38.762.207c1.244.239 3.044.23 4-.02s-.062-.446-2.262-.435-2.982.216-1.738.455M26 32.5c0 .275.225.5.5.5s.5-.225.5-.5-.225-.5-.5-.5-.5.225-.5.5m30 0c0 .275.225.5.5.5s.5-.225.5-.5-.225-.5-.5-.5-.5.225-.5.5m7.333.167a.95.95 0 0 0 1.334 0C65.033 32.3 64.733 32 64 32s-1.033.3-.667.667M23 33.5c0 .275.225.5.5.5s.5-.225.5-.5-.225-.5-.5-.5-.5.225-.5.5m9 .5-6.5.655 6.191.172c3.405.095 6.469-.277 6.809-.827s.479-.922.309-.827S35.575 33.64 32 34m27-.5c0 .275.225.5.5.5s.5-.225.5-.5-.225-.5-.5-.5-.5.225-.5.5m17 0c0 .275.225.5.5.5s.5-.225.5-.5-.225-.5-.5-.5-.5.225-.5.5m2 0c0 .275.225.5.5.5s.5-.225.5-.5-.225-.5-.5-.5-.5.225-.5.5M8 35c0 .733.3 1.033.667.667a.95.95 0 0 0 0-1.334C8.3 33.967 8 34.267 8 35m45-.5c0 .275.225.5.5.5s.5-.225.5-.5-.225-.5-.5-.5-.5.225-.5.5m8.333.167a.95.95 0 0 0 1.334 0C63.033 34.3 62.733 34 62 34s-1.033.3-.667.667M6 35.5c0 .275.225.5.5.5s.5-.225.5-.5-.225-.5-.5-.5-.5.225-.5.5m16 0c0 .275.225.5.5.5s.5-.225.5-.5-.225-.5-.5-.5-.5.225-.5.5m23 1c0 .275.225.5.5.5s.5-.225.5-.5-.225-.5-.5-.5-.5.225-.5.5m12 0c0 .275.225.5.5.5s.5-.225.5-.5-.225-.5-.5-.5-.5.225-.5.5m-23.595 1.655c-.443.715-.275.883.44.44 1.153-.712 1.548-1.595.714-1.595-.243 0-.762.52-1.154 1.155M65.158 39c0 1.375.227 1.938.504 1.25.278-.687.278-1.812 0-2.5-.277-.687-.504-.125-.504 1.25m12 0c0 1.375.227 1.938.504 1.25.278-.687.278-1.812 0-2.5-.277-.687-.504-.125-.504 1.25M21 38.5c0 .275.225.5.5.5s.5-.225.5-.5-.225-.5-.5-.5-.5.225-.5.5m3 0c0 .275.225.5.5.5s.5-.225.5-.5-.225-.5-.5-.5-.5.225-.5.5m55.079 1.083c.048 1.165.285 1.402.604.605.289-.722.253-1.585-.079-1.917s-.568.258-.525 1.312M40 39.5c0 .275.225.5.5.5s.5-.225.5-.5-.225-.5-.5-.5-.5.225-.5.5m6 0c0 .275.225.5.5.5s.5-.225.5-.5-.225-.5-.5-.5-.5.225-.5.5M23 41c0 .733.3 1.033.667.667a.95.95 0 0 0 0-1.334C23.3 39.967 23 40.267 23 41m14-.5c0 .275.225.5.5.5s.5-.225.5-.5-.225-.5-.5-.5-.5.225-.5.5m24 0c0 .275.225.5.5.5s.5-.225.5-.5-.225-.5-.5-.5-.5.225-.5.5M7.158 43c0 1.375.227 1.938.504 1.25.278-.687.278-1.812 0-2.5-.277-.687-.504-.125-.504 1.25M31 41.5c0 .275.225.5.5.5s.5-.225.5-.5-.225-.5-.5-.5-.5.225-.5.5M5 43c0 .733.3 1.033.667.667a.95.95 0 0 0 0-1.334C5.3 41.967 5 42.267 5 43m31-.5c0 .275.225.5.5.5s.5-.225.5-.5-.225-.5-.5-.5-.5.225-.5.5m5 .5c0 .733.3 1.033.667.667a.95.95 0 0 0 0-1.334C41.3 41.967 41 42.267 41 43m6-.5c0 .275.225.5.5.5s.5-.225.5-.5-.225-.5-.5-.5-.5.225-.5.5m-28 1c0 .275.225.5.5.5s.5-.225.5-.5-.225-.5-.5-.5-.5.225-.5.5m3 0c0 .275.225.5.5.5s.5-.225.5-.5-.225-.5-.5-.5-.5.225-.5.5m8 0c0 .275.225.5.5.5s.5-.225.5-.5-.225-.5-.5-.5-.5.225-.5.5m5 1.5c0 .733.3 1.033.667.667a.95.95 0 0 0 0-1.334C35.3 43.967 35 44.267 35 45m-6 1c0 .733.3 1.033.667.667a.95.95 0 0 0 0-1.334C29.3 44.967 29 45.267 29 46m19-.5c0 .275.225.5.5.5s.5-.225.5-.5-.225-.5-.5-.5-.5.225-.5.5m18 0c0 .275.225.5.5.5s.5-.225.5-.5-.225-.5-.5-.5-.5.225-.5.5M77.158 47c0 1.375.227 1.938.504 1.25.278-.687.278-1.812 0-2.5-.277-.687-.504-.125-.504 1.25M18 46.5c0 .275.225.5.5.5s.5-.225.5-.5-.225-.5-.5-.5-.5.225-.5.5m3 0c0 .275.225.5.5.5s.5-.225.5-.5-.225-.5-.5-.5-.5.225-.5.5m21 0c0 .275.225.5.5.5s.5-.225.5-.5-.225-.5-.5-.5-.5.225-.5.5m37 .5c0 .733.3 1.033.667.667a.95.95 0 0 0 0-1.334C79.3 45.967 79 46.267 79 47m-30 .5c0 .275.225.5.5.5s.5-.225.5-.5-.225-.5-.5-.5-.5.225-.5.5m-32 1c0 .275.225.5.5.5s.5-.225.5-.5-.225-.5-.5-.5-.5.225-.5.5m3 1c0 .275.225.5.5.5s.5-.225.5-.5-.225-.5-.5-.5-.5.225-.5.5m8.286 4c.008 2.75.202 3.756.432 2.236s.223-3.77-.014-5-.425.014-.418 2.764M43 49.5c0 .275.225.5.5.5s.5-.225.5-.5-.225-.5-.5-.5-.5.225-.5.5m7.5.5c.34.55.843 1 1.118 1s.222-.45-.118-1-.843-1-1.118-1-.222.45.118 1M8 51c0 .733.3 1.033.667.667a.95.95 0 0 0 0-1.334C8.3 49.967 8 50.267 8 51m26.158 1c0 1.375.227 1.938.504 1.25.278-.687.278-1.812 0-2.5-.277-.687-.504-.125-.504 1.25M39 51.5c0 .275.225.5.5.5s.5-.225.5-.5-.225-.5-.5-.5-.5.225-.5.5m-28 1c0 .275.225.5.5.5s.5-.225.5-.5-.225-.5-.5-.5-.5.225-.5.5m45 0c0 .275.225.5.5.5s.5-.225.5-.5-.225-.5-.5-.5-.5.225-.5.5m20 0c0 .275.225.5.5.5s.5-.225.5-.5-.225-.5-.5-.5-.5.225-.5.5m2 0c0 .275.225.5.5.5s.5-.225.5-.5-.225-.5-.5-.5-.5.225-.5.5m-61.75 1.216c1.513.229 3.988.229 5.5 0s.275-.416-2.75-.416-4.262.187-2.75.416M25 53.5c0 .275.225.5.5.5s.5-.225.5-.5-.225-.5-.5-.5-.5.225-.5.5m14 0c0 .275.225.5.5.5s.5-.225.5-.5-.225-.5-.5-.5-.5.225-.5.5m5.75.223c1.788.222 4.712.222 6.5 0 1.788-.221.325-.403-3.25-.403s-5.038.182-3.25.403M7 54.5c0 .275.225.5.5.5s.5-.225.5-.5-.225-.5-.5-.5-.5.225-.5.5m2 0c0 .275.225.5.5.5s.5-.225.5-.5-.225-.5-.5-.5-.5.225-.5.5m66 1c0 .275.225.5.5.5s.5-.225.5-.5-.225-.5-.5-.5-.5.225-.5.5m-67 2c0 .275.225.5.5.5s.5-.225.5-.5-.225-.5-.5-.5-.5.225-.5.5m2 0c0 .275.225.5.5.5s.5-.225.5-.5-.225-.5-.5-.5-.5.225-.5.5m25 .5c0 .733.3 1.033.667.667a.95.95 0 0 0 0-1.334C35.3 56.967 35 57.267 35 58m39 .5c0 .275.225.5.5.5s.5-.225.5-.5-.225-.5-.5-.5-.5.225-.5.5m2 0c0 .275.225.5.5.5s.5-.225.5-.5-.225-.5-.5-.5-.5.225-.5.5m-67 1c0 .275.225.5.5.5s.5-.225.5-.5-.225-.5-.5-.5-.5.225-.5.5m2 0c0 .275.225.5.5.5s.5-.225.5-.5-.225-.5-.5-.5-.5.225-.5.5m64 1c0 .275.225.5.5.5s.5-.225.5-.5-.225-.5-.5-.5-.5.225-.5.5m-65 1c0 .275.225.5.5.5s.5-.225.5-.5-.225-.5-.5-.5-.5.225-.5.5m19 0c0 .275.225.5.5.5s.5-.225.5-.5-.225-.5-.5-.5-.5.225-.5.5m-16 1c0 .275.225.5.5.5s.5-.225.5-.5-.225-.5-.5-.5-.5.225-.5.5m17 1c0 .275.225.5.5.5s.5-.225.5-.5-.225-.5-.5-.5-.5.225-.5.5m40.405.655c-.443.715-.275.883.44.44.635-.392 1.155-.911 1.155-1.154 0-.834-.883-.439-1.595.714m-4.898.834c-.35.566.051.734.941.393 1.732-.665 2.049-1.382.611-1.382-.518 0-1.216.445-1.552.989M15 65.313c0 .172 1.462 1.635 3.25 3.25L21.5 71.5l-2.937-3.25C15.825 65.221 15 64.54 15 65.313m48.946 4.253c-2.048 2.119-5.162 4.026-7.677 4.702-2.476.665-3.747 1.437-3.063 1.859 2.169 1.341 11.836-4.468 13.922-8.366 1.384-2.586.67-2.181-3.182 1.805M71 66.5c0 .275.225.5.5.5s.5-.225.5-.5-.225-.5-.5-.5-.5.225-.5.5m-39 1c0 .275.225.5.5.5s.5-.225.5-.5-.225-.5-.5-.5-.5.225-.5.5m8.5.5c.34.55.843 1 1.118 1s.222-.45-.118-1-.843-1-1.118-1-.222.45.118 1m21.905.155c-.443.715-.275.883.44.44.635-.392 1.155-.911 1.155-1.154 0-.834-.883-.439-1.595.714M44 70.5c0 .275.225.5.5.5s.5-.225.5-.5-.225-.5-.5-.5-.5.225-.5.5m15 0c0 .275.225.5.5.5s.5-.225.5-.5-.225-.5-.5-.5-.5.225-.5.5m-13 1c0 .275.225.5.5.5s.5-.225.5-.5-.225-.5-.5-.5-.5.225-.5.5m10 0c0 .275.225.5.5.5s.5-.225.5-.5-.225-.5-.5-.5-.5.225-.5.5m-33 1c0 .275.225.5.5.5s.5-.225.5-.5-.225-.5-.5-.5-.5.225-.5.5m14 0c0 .275.225.5.5.5s.5-.225.5-.5-.225-.5-.5-.5-.5.225-.5.5m28 0c0 .275.225.5.5.5s.5-.225.5-.5-.225-.5-.5-.5-.5.225-.5.5m-44 1c0 .275.225.5.5.5s.5-.225.5-.5-.225-.5-.5-.5-.5.225-.5.5m18 0c0 .275.225.5.5.5s.5-.225.5-.5-.225-.5-.5-.5-.5.225-.5.5m-13 1c0 .275.225.5.5.5s.5-.225.5-.5-.225-.5-.5-.5-.5.225-.5.5m15 0c0 .275.225.5.5.5s.5-.225.5-.5-.225-.5-.5-.5-.5.225-.5.5m21 0c0 .275.225.5.5.5s.5-.225.5-.5-.225-.5-.5-.5-.5.225-.5.5m-38 1c0 .275.225.5.5.5s.5-.225.5-.5-.225-.5-.5-.5-.5.225-.5.5m4 0c0 .275.225.5.5.5s.5-.225.5-.5-.225-.5-.5-.5-.5.225-.5.5m16.813.183c.721.289 1.584.253 1.916-.079s-.258-.568-1.312-.525c-1.165.048-1.402.285-.604.604M26 76.5c0 .275.225.5.5.5s.5-.225.5-.5-.225-.5-.5-.5-.5.225-.5.5m5 0c0 .275.225.5.5.5s.5-.225.5-.5-.225-.5-.5-.5-.5.225-.5.5m-3 1c0 .275.225.5.5.5s.5-.225.5-.5-.225-.5-.5-.5-.5.225-.5.5m6.333.167a.95.95 0 0 0 1.334 0C36.033 77.3 35.733 77 35 77s-1.033.3-.667.667M50 77.5c0 .275.225.5.5.5s.5-.225.5-.5-.225-.5-.5-.5-.5.225-.5.5m-19 1c0 .275.225.5.5.5s.5-.225.5-.5-.225-.5-.5-.5-.5.225-.5.5m10.813.183c.721.289 1.584.253 1.916-.079s-.258-.568-1.312-.525c-1.165.048-1.402.285-.604.604M35 79.5c0 .275.225.5.5.5s.5-.225.5-.5-.225-.5-.5-.5-.5.225-.5.5m15 0c0 .275.225.5.5.5s.5-.225.5-.5-.225-.5-.5-.5-.5.225-.5.5"/><path fill="#118cce" fill-rule="evenodd" d="M31.5 7.972C-.49 18.585-2.86 62.458 27.782 76.82 32.726 79.137 34.786 79.5 43 79.5c8.473 0 10.143-.316 15.446-2.919 23.361-11.471 28.274-42.474 9.51-60.025C57.838 7.091 43.986 3.83 31.5 7.972m4.895 1.696c.337 1.062 2.112 6.408 3.944 11.881l3.333 9.951 6.914.561c3.803.309 7.984 1.143 9.291 1.854 1.953 1.061 2.523 1.055 3.196-.033.45-.728 1.008-1.112 1.24-.853.848.946 1.762 12.971.987 12.968-.44-.001-1.7-1.675-2.8-3.719C59.708 37.09 54.76 34 49.244 34c-4.366 0-4.446.058-3.775 2.75.378 1.513 1.664 5.225 2.859 8.25 1.819 4.606 2.619 5.551 4.922 5.816 1.513.174 2.75.849 2.75 1.5.001.823-2.447 1.148-8.033 1.067-8.737-.128-10.661-.788-6.691-2.298l2.553-.97-1.724-5.808c-.948-3.194-2.147-5.761-2.665-5.705-2.293.249-4.693 6.682-4.75 12.732-.072 7.594 3.745 15.536 9.039 18.807 5.173 3.198 13.88 2.311 19.187-1.953 5.496-4.417 6.27-3.987 1.542.855-4.691 4.804-12.231 7.453-18.154 6.377C34.985 73.365 29 65.929 29 53.921c0-6.156 1.81-11.948 4.747-15.194 1.607-1.776 1.463-1.834-3.788-1.537l-5.459.31-2.137 6c-1.176 3.3-1.937 6.337-1.691 6.75.245.413 1.582.75 2.97.75s2.363.485 2.166 1.077c-.533 1.598-13.809 1.764-13.809.173.001-.687.846-1.25 1.879-1.25s2.362-.584 2.954-1.297C18.438 47.767 30 16.493 30 14.082c0-1.145.62-2.082 1.378-2.082s1.995-.75 2.75-1.666c1.243-1.509 1.089-1.597-1.628-.931-1.65.403-4.922 1.853-7.271 3.22C5.115 24.331 1.534 51.62 17.957 68.043c13.837 13.837 36.506 13.742 49.616-.209 5.392-5.738 6.961-8.422 8.981-15.372 4.576-15.742-2.786-32.51-17.786-40.505-5.302-2.827-7.556-3.409-14.627-3.78-7.901-.415-8.325-.333-7.746 1.491m-7.25 15.079C27.415 29.582 26 33.867 26 34.269c0 .839 11.386 1.011 12.213.185.537-.538-4.41-16.984-5.41-17.985-.283-.282-1.929 3.443-3.658 8.278"/></svg>