<svg xmlns="http://www.w3.org/2000/svg" xml:space="preserve" viewBox="0 0 216.51 118.91"><style>.st0{fill:#b42e34}</style><path d="M23.12 56.22c0-15.59 7.8-24.41 14.92-24.41 4.97 0 8.59 3.62 10.51 8.14V10.34c0-3.96-.79-4.97-5.54-4.97h-.79V2.55l16.95-1.13v73.56c0 2.71.79 3.05 5.42 3.28v2.82l-16.05.56v-8.81c-1.36 4.18-4.75 9.6-10.85 9.6-7.79.01-14.57-10.05-14.57-26.21m25.54 4.07v-8.7c0-7.57-3.16-15.37-7.35-15.37-3.95 0-6.33 2.71-6.21 20 0 16.5 1.58 21.81 5.99 21.81 4.97 0 7.57-8.14 7.57-17.74M77.25 75.32c-2.37 0-4.63 4.29-5.42 5.99h-2.6V55.88h2.6c5.42 12.2 13.33 23.17 20.68 23.17 5.76 0 8.81-4.97 8.59-11.19-.23-8.25-7.35-13.79-14.8-19.55-8.25-6.44-16.84-13.56-16.84-26.1 0-11.41 7.68-20.23 18.98-20.23 7.68 0 11.64 5.76 14.01 5.76 1.36 0 2.83-1.36 4.41-4.75h2.26v23.05h-2.71C102.68 16.1 96.81 5.7 89.12 5.7c-5.31 0-8.47 4.52-8.25 10.06.23 8.25 7.23 13.9 14.58 19.55 8.25 6.55 17.06 13.45 17.06 25.76 0 13.9-9.49 21.58-19.1 21.58-8.93.01-13.9-7.33-16.16-7.33" class="st0"/><path d="M120.65 46.21h14.13c6.22 0 11.91 3.55 11.91 17.27 0 13.71-5.99 18.13-13.09 18.13h-13.09v-3.23h3.08V49.53h-2.95v-3.32zm8.78 31.97h2.48c3.84 0 8.45-2.48 8.45-14.84s-5.14-13.81-7.86-13.81h-3.07zM159.46 78.65c1.66 0 4.61-1.36 4.61-5.5h5.73c-.83 4.2-3.67 8.69-10.76 8.69-7.1 0-10.29-6.09-10.29-12.89S152.18 56 159.51 56s10.7 5.26 10.7 13.9h-15.37c-.64 7.81 2.97 8.75 4.62 8.75m-4.55-12.41h9.28c0-5.03-1.83-6.98-4.73-6.98-2.89 0-4.55 2.72-4.55 6.98M22.46 92.2V81.54h-3.37v3.1h-.29c-2.6-2.74-5.85-3.45-7.45-3.45s-9.93 1.54-9.93 9.87c0 8.34 7.86 9.81 8.99 10.29 1.12.47 6.92 1.89 6.92 6.51 0 4.61-4.38 5.38-5.44 5.38-1.07 0-6.56-.89-7.04-8.11H1.47v11.59H4.9v-3.23c2.43 2.4 5.02 3.7 8.16 3.7 4.08 0 10.17-3.25 10.17-10.58 0-7.09-6.86-9.46-8.46-10.11S7.02 93.96 7.02 90s4.14-4.61 4.85-4.61 6.74.31 7.21 6.82h3.38zM34.52 85.26h-3.01c0 4.97-2.49 6.94-4.2 6.94h-1.89v3.41h3.25v15.73c0 3.73 3.96 6.33 7.15 6.15s4.02-.77 4.02-.77l.12-4.03c-2.48.79-5.44.83-5.44-3.19V95.66h5.62V92.2h-5.62zM43.1 99.57c0-4.55 1.42-8.34 8.69-8.34s9.7 3.31 9.7 6.27v15.98h3.25v3.23h-9.11l-.3-2.25c-2.36 1.71-3.78 2.71-6.03 2.71s-7.27-1.83-7.27-7.33 5.68-6.86 9.28-7.75c3.61-.88 4.38-1.95 4.38-4.26s-2.13-3.31-4.02-3.31-2.96 1.83-2.96 3.19-.06 1.84-.06 1.84H43.1zm12.29 4.79c-3.37 0-6.98 1.7-6.98 5.26 0 3.2 2.19 3.49 3.55 3.49s3.37-.82 3.37-3.37c0-2.54.06-5.38.06-5.38M123.33 99.57c0-4.55 1.42-8.34 8.69-8.34s9.7 3.31 9.7 6.27v15.98h3.25v3.23h-9.1l-.3-2.25c-2.36 1.71-3.78 2.71-6.03 2.71s-7.28-1.83-7.28-7.33 5.68-6.86 9.29-7.75c3.61-.88 4.37-1.95 4.37-4.26s-2.13-3.31-4.02-3.31-2.95 1.83-2.95 3.19-.06 1.84-.06 1.84h-5.56zm12.3 4.79c-3.37 0-6.98 1.7-6.98 5.26 0 3.2 2.19 3.49 3.55 3.49s3.37-.82 3.37-3.37c0-2.54.06-5.38.06-5.38M147.93 99.57c0-4.55 1.42-8.34 8.7-8.34 7.27 0 9.7 3.31 9.7 6.27v15.98h3.25v3.23h-9.1l-.29-2.25c-2.37 1.71-3.79 2.71-6.03 2.71-2.25 0-7.28-1.83-7.28-7.33s5.68-6.86 9.29-7.75c3.61-.88 4.37-1.95 4.37-4.26s-2.13-3.31-4.02-3.31-2.96 1.83-2.96 3.19-.06 1.84-.06 1.84h-5.57zm12.3 4.79c-3.37 0-6.98 1.7-6.98 5.26 0 3.2 2.19 3.49 3.55 3.49s3.37-.82 3.37-3.37c0-2.54.06-5.38.06-5.38M66.75 92.2h9.22l-.06 2.64h.18c2.19-2.31 4.79-3.49 7.63-3.49s6.68 2.01 6.68 5.44v16.69h3.26v3.23h-12.6v-3.23h3.19V97.91c0-1.54-2.07-2.6-3.72-2.6-1.66 0-4.38 1.36-4.38 4.08v14.09h3.07v3.23H66.75v-3.23H70V95.67h-3.25zM190.6 91.73c-2.68-.95-6.15-.47-8.83 2.21l-.32-.16-.16-1.58h-9.06v2.76h3.24v18.53h-3.24v3.23h12.62v-3.23h-3.23V99.53c0-3.62 3.71-4.1 4.57-4.1.87 0 3.32.62 4.42 1.88zM116.65 113.49V81.62h-9.03l-.02 3.31h3.25v9.5c-1.06-1.6-3.43-3.02-5.91-3.02s-9.81 2.07-9.81 12.71 6.03 13.06 9.87 13.06 5.56-2.6 5.56-2.6h.29v2.13h9.05v-3.23h-3.25zm-10.88-.29c-1.54 0-4.58-.74-4.58-8.82s2.97-9.04 4.58-9.04c1.97 0 5.08.41 5.08 9.04s-3.15 8.82-5.08 8.82M211.84 113.49V81.62h-9.02l-.02 3.31h3.25v9.5c-1.06-1.6-3.43-3.02-5.91-3.02s-9.82 2.07-9.82 12.71 6.03 13.06 9.87 13.06c3.85 0 5.56-2.6 5.56-2.6h.3v2.13h9.05v-3.23h-3.26zm-10.87-.29c-1.54 0-4.58-.74-4.58-8.82s2.97-9.04 4.58-9.04c1.97 0 5.08.41 5.08 9.04s-3.16 8.82-5.08 8.82"/></svg>