<svg viewBox="0 0 150 23" fill="none" xmlns="http://www.w3.org/2000/svg" style="width: 100%;">
<g clip-path="url(#clip0_947_337)">
<path d="M0 21.3548L2.43513 21.1705V0.9113L0 0.727035V0.419922H16.5568V5.93772H16.2446L14.1737 0.839643H5.73401V10.3396H10.6043L11.9571 6.72598H12.2693V14.3116H11.9571L10.6043 10.7287H5.73401V21.2217H14.4026L16.4111 15.9701H16.7234V21.6414H0V21.3548Z" fill="currentColor"></path>
<path d="M18.6279 20.8436V16.8716H18.9401L20.5428 20.1168C21.4065 20.8743 22.3014 21.4783 23.5606 21.4783C25.3194 21.4783 26.1519 20.4751 26.1519 19.3899C26.1519 17.8748 25.3818 17.3221 23.6543 16.2369L21.1255 14.6604C19.9496 13.9029 18.6591 13.0839 18.6591 11.2003C18.6591 9.22449 20.3242 7.95506 23.5294 7.07471C25.5691 7.07471 26.8907 7.52514 28.0354 8.13935V12.0192H27.7233L26.0582 8.74335C25.1008 7.83228 24.3619 7.64799 23.2796 7.64799C21.9269 7.64799 21.0006 8.43621 21.0006 9.62378C21.0006 10.8931 21.9581 11.5073 23.3734 12.4185L26.027 14.0257C27.9106 15.1518 28.5246 16.1141 28.5246 17.6701C28.4934 19.7585 26.7659 21.3452 23.4046 22.1642C21.6771 22.1437 19.7935 21.509 18.6279 20.8436Z" fill="currentColor"></path>
<path d="M34.8205 22.1119C32.1357 22.1119 31.5217 20.5354 31.5217 18.3549V7.97442H29.2427V7.67757H31.5217V5.37422L34.4251 3.70557V7.67757H38.775V7.98471H34.4251V18.273C34.4251 19.6652 35.1327 20.3101 36.2775 20.3101C37.3285 20.3101 38.0674 20.0338 38.9936 19.5526L39.1497 19.829L34.8205 22.1119Z" fill="currentColor"></path>
<path d="M39.5034 21.3546L41.4494 21.1704V0.972521L39.5346 1.31035L39.4722 1.00324L44.0406 0H44.3528V10.4623L49.9307 7.0636C53.1672 7.0636 53.417 9.21343 53.417 11.527V21.1704L55.6335 21.3546V21.6617H49.0045V21.3546L50.4198 21.1704V11.3427C50.4198 9.48979 49.8058 8.9165 48.5675 8.9165C47.454 8.9165 46.7151 9.39764 45.4871 10.1347L44.3424 10.8001V21.1704L45.8202 21.3546V21.6617H39.5034V21.3546Z" fill="currentColor"></path>
<path d="M68.5585 18.7133C66.7062 20.3205 65.4157 21.2009 63.2824 22.112C59.6089 22.112 56.2788 19.7166 56.2788 15.161C56.2788 10.4622 59.3903 7.85171 63.1263 7.06348C66.6437 7.06348 68.4025 9.18257 68.4025 12.5199V13.3696H58.9325V13.4309C58.9325 17.3722 61.2427 19.8291 64.5416 19.8291C65.8945 19.8291 67.1952 19.2559 68.3608 18.5291L68.5585 18.7133ZM58.9325 13.1034H65.2285V12.5301C65.2285 9.79678 64.7081 7.83128 62.2937 7.83128C60.1396 7.83128 58.9949 9.67393 58.9325 13.1034Z" fill="currentColor"></path>
<path d="M70.0047 21.3547L71.9199 21.1705V8.22053L69.9111 8.67096L69.8799 8.36389L74.417 7.20703H74.7292L74.8227 11.9366L77.872 7.20703H79.8806V10.2987H76.3635L74.8542 12.3665V21.1602L77.6327 21.3445V21.6516H70.0152V21.3547H70.0047Z" fill="currentColor"></path>
<path d="M88.5698 21.3548L91.0048 21.1706V0.9113L88.5698 0.727035V0.419922H98.5291C102.109 0.419922 105.064 2.24213 105.064 5.84559C105.064 9.78686 101.485 11.1279 97.5405 12.0595H94.3041V21.1603L97.1762 21.3446V21.6517H88.5698V21.3548ZM94.3041 11.65H96.7391C99.5798 11.65 101.516 9.316 101.516 6.13223C101.516 3.19418 100.278 0.737271 97.1655 0.737271L94.2934 0.921543V11.65H94.3041Z" fill="currentColor"></path>
<path d="M117.552 18.7133C115.7 20.3205 114.409 21.2009 112.277 22.112C108.603 22.112 105.273 19.7166 105.273 15.161C105.273 10.4622 108.384 7.85171 112.12 7.06348C115.638 7.06348 117.397 9.18257 117.397 12.5199V13.3696H107.927V13.4309C107.927 17.3722 110.237 19.8291 113.536 19.8291C114.889 19.8291 116.189 19.2559 117.355 18.5291L117.552 18.7133ZM107.937 13.1034H114.233V12.5301C114.233 9.79678 113.712 7.83128 111.298 7.83128C109.134 7.83128 107.999 9.67393 107.937 13.1034Z" fill="currentColor"></path>
<path d="M119.009 21.3547L120.924 21.1705V8.22053L118.916 8.67096L118.884 8.36389L123.421 7.20703H123.734L123.828 11.9366L126.876 7.20703H128.885V10.2987H125.368L123.859 12.3665V21.1602L126.637 21.3445V21.6516H119.02V21.3547H119.009Z" fill="currentColor"></path>
<path d="M142.164 18.7133C140.311 20.3205 139.021 21.2009 136.888 22.112C133.214 22.112 129.884 19.7166 129.884 15.161C129.884 10.4622 132.996 7.85171 136.731 7.06348C140.249 7.06348 142.008 9.18257 142.008 12.5199V13.3696H132.538V13.4309C132.538 17.3722 134.848 19.8291 138.147 19.8291C139.5 19.8291 140.801 19.2559 141.966 18.5291L142.164 18.7133ZM132.538 13.1034H138.834V12.5301C138.834 9.79678 138.314 7.83128 135.899 7.83128C133.745 7.83128 132.6 9.67393 132.538 13.1034Z" fill="currentColor"></path>
<path d="M143.215 21.3546L145.161 21.1704V0.972521L143.246 1.31035L143.184 1.00324L147.741 0H148.054V21.1704L150 21.3546V21.6617H143.215V21.3546Z" fill="currentColor"></path>
</g>
<defs>
<clipPath id="clip0_947_337">
<rect width="150" height="22.1429" fill="white"></rect>
</clipPath>
</defs>
</svg>