<svg xmlns="http://www.w3.org/2000/svg" id="Layer_1" data-name="Layer 1" viewBox="0 0 843.86 475.7"><defs><style>.cls-1{fill:#ffc800}.cls-2{fill:#00b0bf}.cls-3{fill:#ff6e28}.cls-4{fill:#ff91ff}.cls-5{fill:red}</style></defs><path d="M89.03 205.01H55.88v-93.56H.07v252.12h55.81V247.36h33.15v116.21h55.81V111.45H89.03zM239.87 265.09h-1.65l-24.95-153.63h-58.76l49.9 252.11h59.42l50.23-252.11h-52.85zM422.15 231.6l-23.64-120.14H324v252.11h48.25V182.36l28.89 181.21h35.12l33.49-181.21v181.21h51.21V111.46h-77.8zM799.48 111.45v119.83l-48.59-119.83h-48.58v252.12h45.63V230.29l53.84 133.28h41.36V111.45zM582.04 111.45l-50.22 252.12h52.85L606 209.94h1.65l24.95 153.63h58.76l-49.9-252.12z"/><path d="M843.17 47.41v-6.1H270.63l-.84 6.1zM.12 41.31v6.1h202.69l-1-6.1z" class="cls-1"/><path d="M843.17 70.84V58.62H268.24l-1.68 12.22zM.12 58.62v12.22h206.5l-1.99-12.22z" class="cls-2"/><path d="M0 78.98V91.2h209.93l-1.99-12.22zM843.17 91.2V78.98H265.43l-1.68 12.22z" class="cls-3"/><path d="m273.47 20.76-.02.18-.82 5.93-.03.18h570.43v-6.29zM198.5 20.94l-.03-.18H.07v6.11h199.4z" class="cls-4"/><path d="M843.06 6.11V0H276.34l-.85 6.11zM.07 0v6.11h196.02l-1-6.11z" class="cls-5"/><path d="M843.86 454.93v-6.11H646.38l.99 6.11zM.07 448.82v6.11h571.76l.85-6.11z" class="cls-4"/><path d="M843.86 434.57v-6.11H643.08l.99 6.11zM.07 428.46v6.11h574.61l.86-6.11z" class="cls-1"/><path d="M.07 405.04v12.22h577.04l1.71-12.22zM843.86 417.26v-12.22H639.28l1.98 12.22z" class="cls-2"/><path d="M.07 384.67v12.22h579.9l1.71-12.22zM843.86 396.89v-12.22H635.98l1.98 12.22z" class="cls-3"/><path d="M.07 469.59v6.11h568.85l.85-6.11zM843.86 475.7v-6.11H649.75l.99 6.11z" class="cls-5"/></svg>