<svg xmlns="http://www.w3.org/2000/svg" width="640" height="319"><path fill="#040404" fill-rule="evenodd" d="M0 159.502v159.501l320.25-.251 320.25-.252.253-159.25L641.006 0H0zm.488.498c0 87.725.118 123.612.262 79.75.144-43.863.144-115.638 0-159.5C.606 36.387.488 72.275.488 160m379.07-96.933c-24.248 2.811-36.674 15.666-38.244 39.565l-.616 9.368H285V66h-41v62.406l-3.75-3.58c-10.956-10.459-20.791-14.212-37.25-14.217-16.773-.004-29.007 4.196-42.452 14.576-11.973 9.243-22.313 24.93-26.244 39.815-2.389 9.045-2.33 28.129.115 37.392 3.769 14.279 10.275 25.244 20.915 35.253 14.125 13.287 27.079 18.509 46.166 18.612 16.669.09 26.104-2.891 37.75-11.928l5.75-4.462V256h39.983l.259-56.25.258-56.25h55l.5 56 .5 56 20.242.271 20.241.27.259-56.27.258-56.271 15.75-.275 15.75-.276V112h-32l.056-5.25c.144-13.388 3.109-15.522 22.808-16.418L419 89.689V63.302l-9.75-.646c-11.788-.781-20.441-.661-29.692.411M63 82v16h42V66H63zm420.205 29.048c-23.838 4.271-46.643 24.34-54.602 48.052-6.247 18.607-4.831 41.614 3.59 58.329 6.489 12.882 18.342 25.029 30.668 31.431 10.584 5.497 18.482 7.371 31.139 7.388 16.112.022 26.632-3.356 37.703-12.108 2.797-2.21 5.358-3.746 5.691-3.413s.606 3.681.606 7.44V255h40.013l-.256-71.25-.257-71.25-20.75-.27-20.75-.271v16.315l-4.765-4.457c-5.933-5.55-12.113-9.169-19.235-11.264-6.789-1.997-21.702-2.776-28.795-1.505m-419.737 2.181c-.267.699-.369 32.996-.227 71.771l.259 70.5h41v-143l-20.273-.271c-15.675-.209-20.384.018-20.759 1m135.818 35.174c-10.023 3.246-17.022 9.263-21.971 18.884-3.823 7.433-4.446 20.715-1.356 28.915 2.955 7.841 9.624 14.975 17.729 18.965 5.486 2.701 7.969 3.294 15.185 3.627 11.788.544 18.188-1.855 26.127-9.794 8.704-8.704 12.189-19.929 9.976-32.135-2.186-12.055-9.499-21.847-19.976-26.75-6.596-3.087-18.934-3.908-25.714-1.712m291.014.401c-14.283 5.095-23.109 16.74-24.083 31.775-1.131 17.472 8.418 31.361 25.126 36.548 27.707 8.601 52.403-14.945 45.247-43.142-2.736-10.781-9.127-18.618-19.59-24.02-6.245-3.224-19.322-3.793-26.7-1.161"/></svg>