<svg xmlns="http://www.w3.org/2000/svg" width="3579" height="1237"><path fill="#00000" fill-rule="evenodd" d="M484.897 71.999c-5.362.95-12.606 5.604-15.479 9.945-1.883 2.846-3.031 6.889-4.456 15.695-5.031 31.102-14.535 49.102-34.081 64.549-9.6 7.586-13.685 12.16-23.369 26.169-7.158 10.353-11.017 13.633-16.051 13.639-4.158.005-8.196-2.252-20.461-11.438-5.775-4.326-13.425-9.249-17-10.94-5.713-2.703-7.771-3.118-17-3.431-21.639-.733-41.256 6.659-48.459 18.259-4.037 6.501-4.701 15.36-1.605 21.428 5.984 11.73 31.343 29.132 49.023 33.642 8.433 2.151 21.359 2.128 32.334-.057 10.265-2.043 14.568-1.276 20.104 3.584 3.652 3.208 9.168 13.649 12.655 23.957 3.365 9.949 3.854 27.962 1.062 39.077-8.299 33.033-45.74 78.458-94.478 114.624-26.95 19.998-50.003 33.528-100.136 58.773-37.291 18.778-43.798 22.344-79 43.289-17.335 10.314-22.227 13.744-28.027 19.656-12.12 12.352-18.248 28.037-19.177 49.081-.395 8.968-.098 14.274 1.176 21 2.46 12.983 2.149 25.504-1.02 41-3.279 16.038-3.748 34.313-1.141 44.5.915 3.575 5.023 13.058 9.13 21.074 8.41 16.417 11.841 26.943 13.652 41.89 2.739 22.599-3.536 52.741-17.079 82.036-7.234 15.65-9.025 22.486-9.724 37.131-.672 14.087.462 22.519 5.856 43.556 3.275 12.773 4.147 18.12 4.536 27.813.476 11.866.425 12.222-4.6 31.86-2.795 10.923-5.082 21.056-5.082 22.518s1.078 4.245 2.396 6.184c5.094 7.497 5.123 14.091.094 21.847-1.281 1.975-3.233 6.573-4.338 10.217-2.668 8.794-6.594 33.977-5.794 37.163.802 3.195 16.713 19.573 22.519 23.178 11.017 6.842 28.266 10.7 38.394 8.587 9.335-1.948 17.177-9.143 19.911-18.268.911-3.04.883-5.038-.128-9.091-2.313-9.272-10.121-28.942-15.758-39.695-6.008-11.462-8.251-19.621-8.279-30.112-.015-5.843.329-7.049 2.957-10.356 1.636-2.058 3.283-5.383 3.659-7.387.415-2.212-.616-14.258-2.625-30.645-5.048-41.191-4.349-51.712 5.449-81.929l4.516-13.928.567-19.499c.984-33.801 4.165-45.718 24.195-90.644 4.659-10.45 8.93-19.562 9.491-20.25 1.794-2.201 3.774-1.378 11.103 4.613 20.104 16.436 29.05 32.636 33.34 60.375 2.564 16.574 2.512 51.975-.093 64.262-2.515 11.864-2.586 29.949-.162 41.5.981 4.675 3.989 15.361 6.685 23.748 5.425 16.878 7.275 26.407 8.884 45.752 2.151 25.851 4.719 36.432 12.157 50.085 4.416 8.105 4.615 10.237 2.256 24.079-2.098 12.304-1.507 14.957 4.892 21.972 9.193 10.077 22.717 14.774 42.212 14.659 15.71-.092 31.427-4.336 33.204-8.966 1.612-4.2-8.86-23.225-24.823-45.097-10.92-14.962-12.187-17.171-15.782-27.5-2.15-6.178-6.424-17.32-9.496-24.761-10.928-26.461-12.051-39.197-5.599-63.471 2.615-9.837 3.287-14.563 3.73-26.216.641-16.886-.227-22.253-6.193-38.284-7.752-20.833-8.987-27.728-8.956-50 .025-18.094.261-20.618 3.275-35 4.627-22.071 6.127-33.03 6.134-44.795.006-9.594.173-10.463 2.461-12.75 2.877-2.878 3.632-2.947 10.136-.94 8.198 2.531 18.928 2.906 27.409.958 15.344-3.525 18.934-3.231 22.068 1.804 1.934 3.108 1.983 4.333 1.362 34.223-.937 45.039.63 71.748 6.717 114.5 3.583 25.161 4.124 43.781 1.916 65.888-1.248 12.492-1.249 16.575-.008 31 .787 9.136 1.434 25.003 1.438 35.258l.007 18.647 5.617 5.89c4.393 4.606 5.996 7.188 7.359 11.853 2.137 7.319 1.689 12.56-2.476 28.964-4.319 17.008-4.725 22.072-2.226 27.721 3.739 8.455 12.125 20.447 16.169 23.122 9.196 6.086 27.518 9.33 47.419 8.396 9.904-.464 11.083-.73 13.364-3.01 8.036-8.036 3.138-31.346-15.158-72.134-3.677-8.197-8.985-22.372-11.796-31.5l-5.111-16.595-.172-23c-.172-23.093-.418-25.575-5.519-55.617-4.519-26.617-4.537-47.995-.056-66.883 7.117-30.001 7.162-78.812.113-121.5-1.09-6.6-2.442-13.572-3.005-15.493-1.846-6.31-1.339-9.936 1.543-11.032 1.411-.536 3.773-.977 5.25-.979s6.06-1.336 10.185-2.965c8.962-3.54 11.86-3.716 15.393-.936 3.639 2.862 5.603 7.074 10.914 23.405 8.789 27.023 12.483 44.609 15.125 72.001 2.877 29.837 6.609 45.989 13.976 60.499a18950 18950 0 0 0 11.204 22.016c10.161 19.937 15.21 36.298 24.48 79.316 6.488 30.111 10.127 44.332 15.079 58.933 4.896 14.436 4.827 18.115-.658 35.142-5.134 15.94-4.702 19.705 3.397 29.593 2.028 2.475 4.737 6.003 6.02 7.839 3.408 4.878 9.501 8.904 16.985 11.224 8.325 2.581 31.045 4.21 44.481 3.189 9.149-.695 10.047-.954 11.89-3.428 2.831-3.799 3.255-11.317 1.227-21.759-1.728-8.895-4.292-14.907-13.248-31.065-5.477-9.881-22.762-50.102-30.728-71.5-15.639-42.008-20.854-67.083-22.567-108.5-1.613-39.028-6.624-60.261-21.944-93-7.893-16.867-10.875-24.889-14.128-38-2.08-8.382-2.358-11.854-2.362-29.5-.005-19.808.032-20.148 3.801-35.387 5.61-22.685 6.967-34.955 6.373-57.613-.533-20.317-1.822-29.47-6.901-49-4.63-17.8-4.376-23.202 1.973-42 6.159-18.236 7.639-26.976 6.975-41.207-.606-13.007-3.743-23.715-9.76-33.314-7.593-12.113-7.534-11.841-5.506-25.479 1.23-8.272 2.024-22.096 2.557-44.5.826-34.722 1.561-40.277 6.419-48.5 2.964-5.018 7.797-9.665 13.255-12.746 2.505-1.413 6.34-5.204 9.427-9.318 10.502-13.996 30.837-32.902 56.738-52.751 13.216-10.128 13.261-21.737.135-34.685-7.39-7.29-15.711-11.625-25.093-13.073-8.662-1.338-11.979-2.828-14.349-6.445-4.738-7.231-6.553-34.251-3.222-47.982.933-3.85 4.847-13.3 8.698-21 8.108-16.216 10.5-25.193 9.428-35.385-2.01-19.098-8.674-26.01-26.484-27.469-3.575-.292-11.45-2.071-17.5-3.953-12.258-3.813-17.288-4.635-22.603-3.694M3389.5 417.556c-25.234 4.749-48.412 17.911-60.977 34.625-10.425 13.869-14.609 26.579-14.651 44.51-.047 20.317 5.816 34.946 19.613 48.936 12.405 12.578 27.157 21.32 55.314 32.777 37.077 15.086 45.168 21.946 44.011 37.312-.951 12.619-9.898 22.238-22.263 23.933-15.762 2.16-28.454-10.219-30.397-29.649l-.65-6.5-35.379-.263-35.38-.263.729 12.263c1.407 23.675 7.842 40.469 20.838 54.385 13.6 14.563 30.714 23.333 53.692 27.513 11.859 2.158 40.261 1.699 52-.84 33.873-7.325 55.628-26.146 64.039-55.402 2.963-10.305 3.778-32.445 1.578-42.893-2.459-11.679-8.516-22.869-17.427-32.196-11.801-12.352-25.066-20.343-57.69-34.752-25.413-11.224-37.81-18.971-40.952-25.593-1.306-2.752-1.66-5.464-1.374-10.527.327-5.795.845-7.391 3.445-10.626 8.268-10.285 25.506-12.403 34.768-4.271 3.693 3.243 7.176 10.382 8.206 16.818l.663 4.147h70.019l-.695-8.564c-1.896-23.374-11.738-42.804-28.358-55.991-8.178-6.488-23.996-14.045-35.722-17.066-12.797-3.297-34.664-4.145-47-1.823M1056 556.5V693h118v-62h-50v-46h47v-62h-47v-41h50v-62h-118zm541 0V693h118v-62h-50v-46h47v-62h-47v-41h50v-62h-118zm-874 1V694h67.196l-.617-74.75c-.339-41.112-.873-78.35-1.186-82.75s-.3-7.733.028-7.407c.329.326 23.698 37.451 51.932 82.5l51.335 81.907 30.656.264 30.656.265V421h-67.962l.453 4.25c.653 6.121 2.89 163.703 2.332 164.26-.257.257-23.834-37.552-52.395-84.02L783.5 421.002l-30.25-.001L723 421zm552 .087v136.587l59.75-.461c55.122-.425 60.602-.621 70.75-2.536 31.021-5.853 52.596-16.325 70.473-34.206 16.795-16.799 27.403-38.84 32.715-67.971 2.443-13.404 2.471-48.771.047-61.724-5.335-28.509-16.938-51.387-35.658-70.308-21.495-21.724-44.355-31.518-81.577-34.952-6.05-.558-34.737-1.015-63.75-1.015L1275 421zm547-.168V694h67v-88.301l31.539 44.151 31.539 44.15h39.961c21.979 0 39.941-.337 39.916-.75s-16.439-21.225-36.477-46.25l-36.432-45.5 4.727-1.288c16.009-4.36 28.948-11.883 39.093-22.728 25.072-26.801 30.338-72.204 12.51-107.844-4.986-9.968-8.821-15.243-16.94-23.301-12.126-12.035-26.152-18.82-47.436-22.949-7.129-1.383-18.215-1.722-68.75-2.1l-60.25-.452zm298 .081V694h151v-62h-80V421h-71zm327.076-134.25c-.48 1.238-24.832 61.875-54.115 134.75s-53.457 133.293-53.721 134.262c-.453 1.664 1.635 1.748 37.326 1.5l37.806-.262 6.978-19.26 6.979-19.259 46.985.259 46.985.26 6.6 19.241 6.601 19.241 38.233.009 38.234.009-1.734-4.35c-.953-2.392-25.358-63.815-54.233-136.494l-52.5-132.145-27.775-.006-27.775-.005zM2680 557.486V694h68.198l-.594-38.75c-.327-21.312-.856-58.55-1.177-82.75l-.582-44 34.188 54.5a77148 77148 0 0 1 51.827 82.724l17.64 28.224 30.75.026L2911 694V421h-68.191l.62 24.75c1.016 40.523 2.73 144.426 2.388 144.741-.174.16-23.743-37.797-52.376-84.35l-52.059-84.641-30.691-.264-30.691-.265zm327 .101v136.587l59.75-.461c55.122-.425 60.602-.621 70.75-2.536 45.241-8.536 73.581-28.154 90.539-62.677 11.141-22.681 14.38-38.672 14.378-71-.001-20.169-.281-24.293-2.274-33.5-6.354-29.361-18.562-51.898-38.036-70.217-20.615-19.394-43.136-28.495-78.607-31.767-6.05-.558-34.738-1.015-63.75-1.015L3007 421zm-1662 .032v74.62l22.25-.502c18.96-.428 23.358-.826 29.747-2.692 9.642-2.815 16.022-6.316 22.863-12.545 13.853-12.614 20.41-31.161 20.503-58 .052-15.089-1.43-24.736-5.563-36.204-5.594-15.525-15.46-26.498-29.898-33.255-9.981-4.67-19.281-6.041-40.99-6.041H1345zm544-36.977v37.642l18.25-.581c10.89-.346 20.266-1.149 23.25-1.991 11.99-3.383 20.546-10.138 24.812-19.59 3.198-7.084 3.584-22.734.747-30.269-4.198-11.152-13.614-18.379-27.885-21.404-4.16-.881-12.795-1.421-22.924-1.432L1889 483zm1189 36.881v74.719l21.75-.506c18.269-.426 22.924-.85 29.089-2.649 13.662-3.989 22.125-9.637 29.906-19.957 13.35-17.707 17.836-51.271 10.645-79.63-5.661-22.324-20.617-38.058-41.925-44.107-4.477-1.271-11.389-1.805-27.715-2.141l-21.75-.448zm-616.172-5.295L2448.26 597.5l27.02.266c14.862.147 27.198.09 27.414-.126.414-.415-25.418-87.227-26.607-89.412-.38-.7-6.797 19.1-14.259 44M2269.324 797.03c-40.474 4.088-73.155 28.785-82.004 61.97-2.386 8.951-2.348 28.147.074 37 4.562 16.672 16.747 32.357 33.606 43.26 11.052 7.147 16.88 10.024 42.076 20.773 26.362 11.245 28.172 12.184 33.996 17.632 16.519 15.451 5.047 42.39-18.018 42.313-15.015-.05-24.557-10.188-27.299-29.003l-1.162-7.975h-69.895l.597 12.75c1.084 23.169 7.73 40.65 20.762 54.604 18.35 19.649 43.177 28.805 77.943 28.747 28.113-.048 49.009-6.08 66.206-19.112 8.705-6.597 14.848-14.333 20.241-25.489 6.502-13.452 8.067-21.096 7.981-39-.064-13.44-.347-15.832-2.724-23-8.239-24.846-25.794-39.963-67.745-58.335-28.547-12.502-42.099-20.438-46.223-27.07-1.731-2.783-2.236-5.099-2.236-10.259 0-5.774.401-7.243 3-11 8.364-12.09 28.774-13.618 37.848-2.834 2.357 2.801 6.652 14.167 6.652 17.603 0 1.167 5.739 1.395 35.061 1.395h35.06l-.66-7.25c-.949-10.433-3.286-21.359-5.992-28.019-5.514-13.57-18.327-28.175-31.584-36-18.022-10.638-43.392-15.94-65.561-13.701M723 938v136h67V971h79v-62h-79v-45h82v-62H723zm226 0v136h71V802h-71zm155 0v136h151v-62h-81V802h-70zm211 0v136h64l-.041-30.75c-.022-16.912-.436-62.249-.918-100.748s-.783-70.093-.667-70.209 12.311 42.408 27.101 94.498 27.729 97.522 28.755 100.959l1.864 6.25h46.756l1.39-4.75c.765-2.612 13.736-48.245 28.825-101.406s27.485-96.586 27.546-96.5c.062.086-.261 33.006-.716 73.156-.456 40.15-.956 85.713-1.112 101.251l-.283 28.25h32.25L1602 1074V801.98l-45.224.26-45.224.26-26.087 87.5c-14.348 48.125-26.284 88.054-26.526 88.731-.241.677-11.665-35.998-25.387-81.5a147705 147705 0 0 0-26.85-88.981l-1.904-6.25H1315zm450 0v136h67V971h79v-62h-79v-45h82v-62h-149zm228 0v136h118v-62h-50v-45h47v-62h-47v-41h50v-62h-118zm429.236-105.25.264 30.75 26.75.266 26.75.267V1074h70V864.033l26.75-.267 26.75-.266.264-30.75.265-30.75h-178.058zM2666 938v136h70V802h-70zm127.242-134.763c.255.695 20.668 61.906 45.361 136.025l44.897 134.761 36.43-.261 36.43-.262 45.288-135c24.909-74.25 45.303-135.337 45.32-135.75s-16.28-.745-36.218-.739l-36.25.012-26.415 91.738c-14.528 50.457-26.911 93.026-27.517 94.6-.984 2.556-3.985-7.184-28.195-91.5L2865.28 802.5l-36.252-.263c-28.86-.209-36.157-.005-35.786 1m330.391 64.998c-14.645 36.446-39.192 97.54-54.549 135.765l-27.921 69.5 37.573.262c20.665.144 37.744.092 37.952-.117.209-.209 3.471-8.877 7.25-19.262l6.869-18.883 46.872-.26 46.872-.259 6.446 19.509 6.445 19.51h38.279c21.054 0 38.271-.112 38.261-.25s-24.256-61.225-53.88-135.75l-53.861-135.5-27.99-.265-27.989-.266zM3358 938v136h151.029l-.265-30.75-.264-30.75-40.25-.261-40.25-.262V802h-70zm-180.734-48c-2.396 6.161-26.52 88.079-26.07 88.529.277.277 12.664.384 27.527.237l27.023-.266-13.393-44.5c-7.367-24.475-13.557-44.95-13.755-45.5s-.797.125-1.332 1.5"/></svg>