<svg xmlns="http://www.w3.org/2000/svg" width="66" height="20"><g fill="none" fill-rule="evenodd"><path fill="#cd171a" d="m55 1 5.038 9.507L55 20h3.889L66 10.502v-.004L58.889 1z"/><g fill="#000"><path d="m.07 17.023 2.18-.52V4.939L0 4.386V1.753L6.89.958l.484.242v1.836h.208C9.348 1.788 11.183.922 13.642.922c2.942 0 4.846 1.281 4.846 4.605v10.975l2.077.52v2.526h-9.244v-2.526l1.8-.45V7.329c0-1.801-.865-2.355-2.63-2.355-1.074 0-1.974.277-2.875.588v11.01l1.801.45v2.528H.07zM21.361 17.023l2.181-.52V4.939l-2.25-.553V1.753l6.89-.795.484.242v2.597h.208c.97-1.524 2.562-2.84 4.64-2.84.311 0 .726.07.934.14v4.708c-.416-.103-1.039-.138-1.524-.138-1.696 0-2.942.277-4.016.83v10.006l2.666.52v2.526H21.361zM34.967 10.548c0-6.751 4.155-9.625 9.97-9.625 2.079 0 4.156.312 5.333.727v5.367h-3.324l-.554-2.632c-.381-.138-.761-.276-1.765-.276-2.493 0-4.016 1.696-4.016 5.989 0 4.674 2.146 6.163 5.4 6.163 1.939 0 3.567-.416 4.467-.796v2.838C49.335 19.1 47.362 20 44.315 20c-6.232 0-9.348-3.635-9.348-9.452"/></g></g></svg>